<?xml version="1.0" encoding="utf-8"?>
<!-- Generator: Adobe Illustrator 23.0.3, SVG Export Plug-In . SVG Version: 6.00 Build 0)  -->
<svg version="1.1" id="Layer_1" xmlns="http://www.w3.org/2000/svg" xmlns:xlink="http://www.w3.org/1999/xlink" x="0px" y="0px"
	 viewBox="0 0 76.18 99.21" style="enable-background:new 0 0 76.18 99.21;" xml:space="preserve">
<style type="text/css">
	.st0{fill:#77CBC6;}
	.st1{fill:#5EB7B2;}
	.st2{fill:#BDE4E1;}
	.st3{fill:#5EB7B1;}
	.st4{fill:#75CCC7;}
</style>
<g>
	
		<rect x="340.3" y="136.53" transform="matrix(0.3197 -0.9475 0.9475 0.3197 106.991 428.8318)" class="st0" width="23.67" height="6.76"/>
	<polygon class="st1" points="301.23,134.33 296.43,129.57 320.55,101.65 325.35,106.41 	"/>
	<polygon class="st0" points="297.17,131.12 302.2,131.47 301.73,158.78 296.7,158.43 	"/>
	<rect x="333.24" y="186.21" class="st0" width="26.87" height="5.19"/>
	<path class="st1" d="M363.46,194.46c0,0.25-0.21,0.46-0.46,0.46h-32.64c-0.25,0-0.46-0.21-0.46-0.46v-4.59
		c0-0.25,0.21-0.46,0.46-0.46H363c0.25,0,0.46,0.21,0.46,0.46V194.46L363.46,194.46z"/>
	<path class="st2" d="M362.34,186.21v-30.22c0-8.65-7.01-15.66-15.66-15.66s-15.66,7.01-15.66,15.66v30.22H362.34L362.34,186.21z"/>
	<ellipse class="st1" cx="346.68" cy="153.92" rx="7.89" ry="7.89"/>
	<path class="st0" d="M350.29,153.92c0,2-1.62,3.62-3.62,3.62s-3.62-1.62-3.62-3.62s1.62-3.62,3.62-3.62
		C348.68,150.3,350.29,151.92,350.29,153.92z"/>
	<path class="st2" d="M316.63,99.22c-2.8,3.83-1.96,9.21,1.87,12l31.82,23.24c3.83,2.8,9.21,1.96,12-1.87
		c2.8-3.83,1.96-9.21-1.87-12l-31.82-23.24C324.8,94.56,319.42,95.39,316.63,99.22z"/>
	<g>
		<g>
			<path class="st1" d="M325.2,100.13c1.93,1.41,2.35,4.12,0.94,6.05c-1.41,1.93-4.12,2.35-6.05,0.94
				c-1.93-1.41-2.35-4.12-0.94-6.05S323.27,98.72,325.2,100.13z"/>
			<path class="st0" d="M323.82,102.02c0.89,0.65,1.08,1.89,0.43,2.77c-0.65,0.89-1.89,1.08-2.77,0.43
				c-0.89-0.65-1.08-1.89-0.43-2.77C321.69,101.57,322.93,101.37,323.82,102.02z"/>
		</g>
		<g>
			<path class="st1" d="M358.85,124.7c1.93,1.41,2.35,4.12,0.94,6.05c-1.41,1.93-4.12,2.35-6.05,0.94
				c-1.93-1.41-2.35-4.12-0.94-6.05C354.21,123.72,356.92,123.3,358.85,124.7z"/>
			<path class="st0" d="M357.47,126.6c0.89,0.65,1.08,1.89,0.43,2.77c-0.65,0.88-1.89,1.08-2.77,0.43
				c-0.89-0.65-1.08-1.89-0.43-2.77C355.34,126.15,356.58,125.95,357.47,126.6z"/>
		</g>
	</g>
	<g>
		<polygon class="st1" points="308.61,180.86 311.21,180.65 312.22,163.94 299.73,158.39 300.35,166.07 308.75,166.33 		"/>
		<polygon class="st1" points="291.46,182.24 294.06,182.03 291.6,167.71 299.85,166.11 299.23,158.43 287.79,165.91 		"/>
	</g>
	<path class="st2" d="M293.59,161.67c-0.26-3.24,2.15-6.08,5.39-6.34c3.24-0.26,6.08,2.15,6.34,5.39c0.26,3.24-2.15,6.08-5.39,6.34
		C296.69,167.33,293.85,164.91,293.59,161.67z"/>
	<path class="st0" d="M296.52,161.44c-0.13-1.62,1.08-3.04,2.69-3.17c1.62-0.13,3.04,1.08,3.17,2.69c0.13,1.62-1.08,3.04-2.69,3.17
		C298.07,164.26,296.66,163.05,296.52,161.44z"/>
	<path class="st2" d="M293.59,132.34c-0.26-3.24,2.15-6.08,5.39-6.34c3.24-0.26,6.08,2.15,6.34,5.39c0.26,3.24-2.15,6.08-5.39,6.34
		C296.69,138,293.85,135.58,293.59,132.34z"/>
	<path class="st0" d="M296.52,132.11c-0.13-1.62,1.08-3.04,2.69-3.17c1.62-0.13,3.04,1.08,3.17,2.69c0.13,1.62-1.08,3.04-2.69,3.17
		C298.07,134.93,296.66,133.72,296.52,132.11z"/>
</g>
<rect x="35.99" y="56.27" class="st3" width="5.93" height="30.9"/>
<rect x="5.94" y="92.21" class="st3" width="66.03" height="1.75"/>
<path class="st2" d="M70.02,63.53c0,3.1-13.91,5.61-31.07,5.61c-17.16,0-31.07-2.51-31.07-5.61c0-3.1,13.91-5.61,31.07-5.61
	C56.11,57.92,70.02,60.43,70.02,63.53z"/>
<rect x="7.88" y="48.12" class="st2" width="62.14" height="15.33"/>
<path class="st4" d="M70.02,47.93c0,3.1-13.91,5.61-31.07,5.61c-17.16,0-31.07-2.51-31.07-5.61c0-3.1,13.91-5.61,31.07-5.61
	C56.11,42.32,70.02,44.83,70.02,47.93z"/>
<g>
	<path class="st3" d="M65.34,59.67c0,2.29-1.65,4.37-3.69,4.64c-2.04,0.27-3.69-1.37-3.69-3.66c0-2.29,1.65-4.37,3.69-4.64
		C63.69,55.74,65.34,57.38,65.34,59.67z"/>
	<path class="st4" d="M63.55,59.91c0,1.18-0.85,2.25-1.9,2.39c-1.05,0.14-1.9-0.71-1.9-1.89c0-1.18,0.85-2.25,1.9-2.39
		C62.7,57.88,63.55,58.73,63.55,59.91z"/>
</g>
<g>
	<path class="st4" d="M46.46,62.37c0,0.67-0.54,1.21-1.21,1.21c-0.67,0-1.21-0.54-1.21-1.21c0-0.67,0.54-1.21,1.21-1.21
		C45.92,61.16,46.46,61.7,46.46,62.37z"/>
	<path class="st4" d="M40.16,62.37c0,0.67-0.54,1.21-1.21,1.21c-0.67,0-1.21-0.54-1.21-1.21c0-0.67,0.54-1.21,1.21-1.21
		C39.62,61.16,40.16,61.7,40.16,62.37z"/>
	<path class="st4" d="M33.86,62.37c0,0.67-0.54,1.21-1.21,1.21c-0.67,0-1.21-0.54-1.21-1.21c0-0.67,0.54-1.21,1.21-1.21
		C33.32,61.16,33.86,61.7,33.86,62.37z"/>
</g>
<path class="st2" d="M70.02,42.85c0,3.1-13.91,5.61-31.07,5.61c-17.16,0-31.07-2.51-31.07-5.61c0-3.1,13.91-5.61,31.07-5.61
	C56.11,37.24,70.02,39.75,70.02,42.85z"/>
<rect x="7.88" y="27.44" class="st2" width="62.14" height="15.33"/>
<path class="st4" d="M70.02,27.25c0,3.1-13.91,5.61-31.07,5.61c-17.16,0-31.07-2.51-31.07-5.61s13.91-5.61,31.07-5.61
	C56.11,21.64,70.02,24.16,70.02,27.25z"/>
<g>
	<path class="st3" d="M65.34,38.99c0,2.29-1.65,4.37-3.69,4.64c-2.04,0.27-3.69-1.37-3.69-3.66s1.65-4.37,3.69-4.64
		C63.69,35.06,65.34,36.7,65.34,38.99z"/>
	<path class="st4" d="M63.55,39.23c0,1.18-0.85,2.25-1.9,2.39c-1.05,0.14-1.9-0.71-1.9-1.89c0-1.18,0.85-2.25,1.9-2.39
		C62.7,37.2,63.55,38.05,63.55,39.23z"/>
</g>
<g>
	<path class="st4" d="M46.46,41.69c0,0.67-0.54,1.21-1.21,1.21c-0.67,0-1.21-0.54-1.21-1.21c0-0.67,0.54-1.21,1.21-1.21
		C45.92,40.48,46.46,41.03,46.46,41.69z"/>
	<path class="st4" d="M40.16,41.69c0,0.67-0.54,1.21-1.21,1.21c-0.67,0-1.21-0.54-1.21-1.21c0-0.67,0.54-1.21,1.21-1.21
		C39.62,40.48,40.16,41.03,40.16,41.69z"/>
	<path class="st4" d="M33.86,41.69c0,0.67-0.54,1.21-1.21,1.21c-0.67,0-1.21-0.54-1.21-1.21c0-0.67,0.54-1.21,1.21-1.21
		C33.32,40.48,33.86,41.03,33.86,41.69z"/>
</g>
<path class="st2" d="M70.02,22.17c0,3.1-13.91,5.61-31.07,5.61c-17.16,0-31.07-2.51-31.07-5.61c0-3.1,13.91-5.61,31.07-5.61
	C56.11,16.56,70.02,19.08,70.02,22.17z"/>
<rect x="7.88" y="6.76" class="st2" width="62.14" height="15.33"/>
<ellipse class="st4" cx="38.95" cy="6.57" rx="31.07" ry="5.61"/>
<g>
	<path class="st3" d="M65.34,18.31c0,2.29-1.65,4.37-3.69,4.64c-2.04,0.27-3.69-1.37-3.69-3.66s1.65-4.37,3.69-4.64
		C63.69,14.38,65.34,16.02,65.34,18.31z"/>
	<path class="st4" d="M63.55,18.55c0,1.18-0.85,2.25-1.9,2.39c-1.05,0.14-1.9-0.71-1.9-1.89c0-1.18,0.85-2.25,1.9-2.39
		C62.7,16.53,63.55,17.37,63.55,18.55z"/>
</g>
<g>
	<path class="st4" d="M46.46,21.02c0,0.67-0.54,1.21-1.21,1.21c-0.67,0-1.21-0.54-1.21-1.21s0.54-1.21,1.21-1.21
		C45.92,19.81,46.46,20.35,46.46,21.02z"/>
	<path class="st4" d="M40.16,21.02c0,0.67-0.54,1.21-1.21,1.21c-0.67,0-1.21-0.54-1.21-1.21s0.54-1.21,1.21-1.21
		C39.62,19.81,40.16,20.35,40.16,21.02z"/>
	<path class="st4" d="M33.86,21.02c0,0.67-0.54,1.21-1.21,1.21c-0.67,0-1.21-0.54-1.21-1.21s0.54-1.21,1.21-1.21
		C33.32,19.81,33.86,20.35,33.86,21.02z"/>
</g>
<path class="st2" d="M47.05,88.83c0,1.18-0.95,2.13-2.12,2.13H32.98c-1.17,0-2.12-0.95-2.12-2.13v-3.72c0-1.18,0.95-2.13,2.12-2.13
	h11.94c1.17,0,2.12,0.95,2.12,2.13V88.83z"/>
<path class="st4" d="M51.76,95.7c0,1.94-1.57,3.51-3.5,3.51h-18.6c-1.93,0-3.5-1.57-3.5-3.51v-5.22c0-1.94,1.57-3.51,3.5-3.51h18.6
	c1.93,0,3.5,1.57,3.5,3.51V95.7z"/>
<g>
	<path class="st4" d="M9.58,93.09c0,1.7-1.37,3.07-3.06,3.07c-1.69,0-3.06-1.37-3.06-3.07c0-1.7,1.37-3.07,3.06-3.07
		C8.2,90.02,9.58,91.39,9.58,93.09z"/>
	<path class="st4" d="M74.46,93.09c0,1.7-1.37,3.07-3.06,3.07c-1.69,0-3.06-1.37-3.06-3.07c0-1.7,1.37-3.07,3.06-3.07
		C73.09,90.02,74.46,91.39,74.46,93.09z"/>
</g>
</svg>
