<?xml version="1.0" encoding="utf-8"?>
<!-- Generator: Adobe Illustrator 23.0.3, SVG Export Plug-In . SVG Version: 6.00 Build 0)  -->
<svg version="1.1" id="Layer_1" xmlns="http://www.w3.org/2000/svg" xmlns:xlink="http://www.w3.org/1999/xlink" x="0px" y="0px"
	 viewBox="0 0 76.18 99.22" style="enable-background:new 0 0 76.18 99.22;" xml:space="preserve">
<style type="text/css">
	.st0{fill:#77CBC6;}
	.st1{fill:#5EB7B2;}
	.st2{fill:#BDE4E1;}
	.st3{fill:#5EB7B1;}
	.st4{fill:#75CCC7;}
</style>
<g>
	
		<rect x="52.5" y="40.83" transform="matrix(0.3197 -0.9475 0.9475 0.3197 1.8823 91.036)" class="st0" width="23.67" height="6.76"/>
	<polygon class="st1" points="13.44,38.63 8.64,33.87 32.76,5.95 37.56,10.71 	"/>
	<polygon class="st0" points="9.38,35.42 14.41,35.77 13.94,63.08 8.91,62.73 	"/>
	<rect x="45.45" y="90.51" class="st0" width="26.87" height="5.19"/>
	<path class="st1" d="M75.67,98.76c0,0.25-0.21,0.46-0.46,0.46H42.57c-0.25,0-0.46-0.21-0.46-0.46v-4.59c0-0.25,0.21-0.46,0.46-0.46
		h32.64c0.25,0,0.46,0.21,0.46,0.46V98.76L75.67,98.76z"/>
	<path class="st2" d="M74.55,90.51V60.29c0-8.65-7.01-15.66-15.66-15.66s-15.66,7.01-15.66,15.66v30.22H74.55L74.55,90.51z"/>
	<ellipse class="st1" cx="58.89" cy="58.22" rx="7.89" ry="7.89"/>
	<path class="st0" d="M62.5,58.22c0,2-1.62,3.62-3.62,3.62s-3.62-1.62-3.62-3.62s1.62-3.62,3.62-3.62
		C60.89,54.6,62.5,56.22,62.5,58.22z"/>
	<path class="st2" d="M28.84,3.52c-2.8,3.83-1.96,9.21,1.87,12l31.82,23.24c3.83,2.8,9.21,1.96,12-1.87c2.8-3.83,1.96-9.21-1.87-12
		L40.84,1.65C37.01-1.14,31.63-0.31,28.84,3.52z"/>
	<g>
		<g>
			<path class="st1" d="M37.41,4.43c1.93,1.41,2.35,4.12,0.94,6.05s-4.12,2.35-6.05,0.94s-2.35-4.12-0.94-6.05
				C32.77,3.44,35.48,3.02,37.41,4.43z"/>
			<path class="st0" d="M36.03,6.32c0.89,0.65,1.08,1.89,0.43,2.77c-0.65,0.89-1.89,1.08-2.77,0.43c-0.89-0.65-1.08-1.89-0.43-2.77
				C33.9,5.87,35.14,5.67,36.03,6.32z"/>
		</g>
		<g>
			<path class="st1" d="M71.06,29c1.93,1.41,2.35,4.12,0.94,6.05c-1.41,1.93-4.12,2.35-6.05,0.94s-2.35-4.12-0.94-6.05
				C66.42,28.02,69.13,27.6,71.06,29z"/>
			<path class="st0" d="M69.68,30.9c0.89,0.65,1.08,1.89,0.43,2.77s-1.89,1.08-2.77,0.43c-0.89-0.65-1.08-1.89-0.43-2.77
				C67.55,30.45,68.79,30.25,69.68,30.9z"/>
		</g>
	</g>
	<g>
		<polygon class="st1" points="20.82,85.16 23.42,84.95 24.43,68.24 11.94,62.69 12.56,70.37 20.96,70.63 		"/>
		<polygon class="st1" points="3.67,86.54 6.27,86.33 3.81,72.01 12.06,70.41 11.44,62.73 0,70.21 		"/>
	</g>
	<path class="st2" d="M5.8,65.97c-0.26-3.24,2.15-6.08,5.39-6.34s6.08,2.15,6.34,5.39c0.26,3.24-2.15,6.08-5.39,6.34
		C8.9,71.63,6.06,69.21,5.8,65.97z"/>
	<path class="st0" d="M8.73,65.74c-0.13-1.62,1.08-3.04,2.69-3.17c1.62-0.13,3.04,1.08,3.17,2.69c0.13,1.62-1.08,3.04-2.69,3.17
		C10.28,68.56,8.87,67.35,8.73,65.74z"/>
	<path class="st2" d="M5.8,36.64c-0.26-3.24,2.15-6.08,5.39-6.34s6.08,2.15,6.34,5.39c0.26,3.24-2.15,6.08-5.39,6.34
		C8.9,42.3,6.06,39.88,5.8,36.64z"/>
	<path class="st0" d="M8.73,36.41c-0.13-1.62,1.08-3.04,2.69-3.17c1.62-0.13,3.04,1.08,3.17,2.69c0.13,1.62-1.08,3.04-2.69,3.17
		C10.28,39.23,8.87,38.02,8.73,36.41z"/>
</g>
<rect x="178.16" y="56.27" class="st3" width="5.93" height="30.9"/>
<rect x="148.11" y="92.22" class="st3" width="66.03" height="1.75"/>
<path class="st2" d="M212.19,63.53c0,3.1-13.91,5.61-31.07,5.61c-17.16,0-31.07-2.51-31.07-5.61c0-3.1,13.91-5.61,31.07-5.61
	C198.28,57.93,212.19,60.44,212.19,63.53z"/>
<rect x="150.06" y="48.12" class="st2" width="62.14" height="15.33"/>
<path class="st4" d="M212.19,47.94c0,3.1-13.91,5.61-31.07,5.61c-17.16,0-31.07-2.51-31.07-5.61c0-3.1,13.91-5.61,31.07-5.61
	C198.28,42.33,212.19,44.84,212.19,47.94z"/>
<g>
	<path class="st3" d="M207.51,59.68c0,2.29-1.65,4.37-3.69,4.64c-2.04,0.27-3.69-1.37-3.69-3.66s1.65-4.37,3.69-4.64
		C205.86,55.75,207.51,57.38,207.51,59.68z"/>
	<path class="st4" d="M205.72,59.91c0,1.18-0.85,2.25-1.9,2.39c-1.05,0.14-1.9-0.71-1.9-1.89c0-1.18,0.85-2.25,1.9-2.39
		C204.87,57.89,205.72,58.73,205.72,59.91z"/>
</g>
<g>
	<path class="st4" d="M188.63,62.38c0,0.67-0.54,1.21-1.21,1.21c-0.67,0-1.21-0.54-1.21-1.21c0-0.67,0.54-1.21,1.21-1.21
		C188.09,61.17,188.63,61.71,188.63,62.38z"/>
	<path class="st4" d="M182.33,62.38c0,0.67-0.54,1.21-1.21,1.21c-0.67,0-1.21-0.54-1.21-1.21c0-0.67,0.54-1.21,1.21-1.21
		C181.79,61.17,182.33,61.71,182.33,62.38z"/>
	<path class="st4" d="M176.04,62.38c0,0.67-0.54,1.21-1.21,1.21c-0.67,0-1.21-0.54-1.21-1.21c0-0.67,0.54-1.21,1.21-1.21
		C175.49,61.17,176.04,61.71,176.04,62.38z"/>
</g>
<path class="st2" d="M212.19,42.86c0,3.1-13.91,5.61-31.07,5.61c-17.16,0-31.07-2.51-31.07-5.61c0-3.1,13.91-5.61,31.07-5.61
	C198.28,37.25,212.19,39.76,212.19,42.86z"/>
<rect x="150.06" y="27.44" class="st2" width="62.14" height="15.33"/>
<path class="st4" d="M212.19,27.26c0,3.1-13.91,5.61-31.07,5.61c-17.16,0-31.07-2.51-31.07-5.61s13.91-5.61,31.07-5.61
	C198.28,21.65,212.19,24.16,212.19,27.26z"/>
<g>
	<path class="st3" d="M207.51,39c0,2.29-1.65,4.37-3.69,4.64c-2.04,0.27-3.69-1.37-3.69-3.66c0-2.29,1.65-4.37,3.69-4.64
		C205.86,35.07,207.51,36.71,207.51,39z"/>
	<path class="st4" d="M205.72,39.23c0,1.18-0.85,2.25-1.9,2.39c-1.05,0.14-1.9-0.71-1.9-1.89c0-1.18,0.85-2.25,1.9-2.39
		C204.87,37.21,205.72,38.05,205.72,39.23z"/>
</g>
<g>
	<path class="st4" d="M188.63,41.7c0,0.67-0.54,1.21-1.21,1.21c-0.67,0-1.21-0.54-1.21-1.21c0-0.67,0.54-1.21,1.21-1.21
		C188.09,40.49,188.63,41.03,188.63,41.7z"/>
	<path class="st4" d="M182.33,41.7c0,0.67-0.54,1.21-1.21,1.21c-0.67,0-1.21-0.54-1.21-1.21c0-0.67,0.54-1.21,1.21-1.21
		C181.79,40.49,182.33,41.03,182.33,41.7z"/>
	<path class="st4" d="M176.04,41.7c0,0.67-0.54,1.21-1.21,1.21c-0.67,0-1.21-0.54-1.21-1.21c0-0.67,0.54-1.21,1.21-1.21
		C175.49,40.49,176.04,41.03,176.04,41.7z"/>
</g>
<path class="st2" d="M212.19,22.18c0,3.1-13.91,5.61-31.07,5.61c-17.16,0-31.07-2.51-31.07-5.61c0-3.1,13.91-5.61,31.07-5.61
	C198.28,16.57,212.19,19.08,212.19,22.18z"/>
<rect x="150.06" y="6.76" class="st2" width="62.14" height="15.33"/>
<ellipse class="st4" cx="181.13" cy="6.58" rx="31.07" ry="5.61"/>
<g>
	<path class="st3" d="M207.51,18.32c0,2.29-1.65,4.37-3.69,4.64c-2.04,0.27-3.69-1.37-3.69-3.66s1.65-4.37,3.69-4.64
		C205.86,14.39,207.51,16.03,207.51,18.32z"/>
	<path class="st4" d="M205.72,18.56c0,1.18-0.85,2.25-1.9,2.39c-1.05,0.14-1.9-0.71-1.9-1.89c0-1.18,0.85-2.25,1.9-2.39
		C204.87,16.53,205.72,17.38,205.72,18.56z"/>
</g>
<g>
	<path class="st4" d="M188.63,21.02c0,0.67-0.54,1.21-1.21,1.21c-0.67,0-1.21-0.54-1.21-1.21s0.54-1.21,1.21-1.21
		C188.09,19.81,188.63,20.35,188.63,21.02z"/>
	<path class="st4" d="M182.33,21.02c0,0.67-0.54,1.21-1.21,1.21c-0.67,0-1.21-0.54-1.21-1.21s0.54-1.21,1.21-1.21
		C181.79,19.81,182.33,20.35,182.33,21.02z"/>
	<path class="st4" d="M176.04,21.02c0,0.67-0.54,1.21-1.21,1.21c-0.67,0-1.21-0.54-1.21-1.21s0.54-1.21,1.21-1.21
		C175.49,19.81,176.04,20.35,176.04,21.02z"/>
</g>
<path class="st2" d="M189.22,88.84c0,1.18-0.95,2.13-2.12,2.13h-11.94c-1.17,0-2.12-0.95-2.12-2.13v-3.72
	c0-1.18,0.95-2.13,2.12-2.13h11.94c1.17,0,2.12,0.95,2.12,2.13V88.84z"/>
<path class="st4" d="M193.93,95.71c0,1.94-1.57,3.51-3.5,3.51h-18.6c-1.93,0-3.5-1.57-3.5-3.51v-5.22c0-1.94,1.57-3.51,3.5-3.51
	h18.6c1.93,0,3.5,1.57,3.5,3.51V95.71z"/>
<g>
	<path class="st4" d="M151.75,93.1c0,1.7-1.37,3.07-3.06,3.07c-1.69,0-3.06-1.37-3.06-3.07c0-1.7,1.37-3.07,3.06-3.07
		C150.38,90.03,151.75,91.4,151.75,93.1z"/>
	<path class="st4" d="M216.63,93.1c0,1.7-1.37,3.07-3.06,3.07c-1.69,0-3.06-1.37-3.06-3.07c0-1.7,1.37-3.07,3.06-3.07
		C215.26,90.03,216.63,91.4,216.63,93.1z"/>
</g>
</svg>
