<?xml version="1.0" encoding="utf-8"?>
<!-- Generator: Adobe Illustrator 23.0.3, SVG Export Plug-In . SVG Version: 6.00 Build 0)  -->
<svg version="1.1" id="Layer_1" xmlns="http://www.w3.org/2000/svg" xmlns:xlink="http://www.w3.org/1999/xlink" x="0px" y="0px"
	 viewBox="0 0 111.33 100.83" style="enable-background:new 0 0 111.33 100.83;" xml:space="preserve">
<style type="text/css">
	.st0{fill:#77CBC6;}
	.st1{fill:#5EB7B2;}
	.st2{fill:#BDE4E1;}
	.st3{fill:#5EB7B1;}
	.st4{fill:#75CCC7;}
	.st5{fill:none;}
</style>
<g>
	
		<rect x="-72.35" y="43.16" transform="matrix(0.3197 -0.9475 0.9475 0.3197 -85.261 -25.6773)" class="st0" width="23.67" height="6.76"/>
	<polygon class="st1" points="-111.41,40.96 -116.21,36.2 -92.09,8.28 -87.29,13.04 	"/>
	<polygon class="st0" points="-115.47,37.75 -110.44,38.1 -110.91,65.41 -115.94,65.06 	"/>
	<rect x="-79.4" y="92.84" class="st0" width="26.87" height="5.19"/>
	<path class="st1" d="M-49.18,101.09c0,0.25-0.21,0.46-0.46,0.46h-32.64c-0.25,0-0.46-0.21-0.46-0.46V96.5
		c0-0.25,0.21-0.46,0.46-0.46h32.64c0.25,0,0.46,0.21,0.46,0.46V101.09L-49.18,101.09z"/>
	<path class="st2" d="M-50.3,92.84V62.62c0-8.65-7.01-15.66-15.66-15.66s-15.66,7.01-15.66,15.66v30.22H-50.3L-50.3,92.84z"/>
	<ellipse class="st1" cx="-65.96" cy="60.55" rx="7.89" ry="7.89"/>
	<path class="st0" d="M-62.35,60.55c0,2-1.62,3.62-3.62,3.62c-2,0-3.62-1.62-3.62-3.62s1.62-3.62,3.62-3.62
		C-63.96,56.93-62.35,58.55-62.35,60.55z"/>
	<path class="st2" d="M-96.01,5.85c-2.8,3.83-1.96,9.21,1.87,12l31.82,23.24c3.83,2.8,9.21,1.96,12-1.87c2.8-3.83,1.96-9.21-1.87-12
		L-84.01,3.98C-87.84,1.19-93.22,2.02-96.01,5.85z"/>
	<g>
		<g>
			<path class="st1" d="M-87.44,6.76c1.93,1.41,2.35,4.12,0.94,6.05c-1.41,1.93-4.12,2.35-6.05,0.94s-2.35-4.12-0.94-6.05
				S-89.37,5.35-87.44,6.76z"/>
			<path class="st0" d="M-88.82,8.65c0.89,0.65,1.08,1.89,0.43,2.77c-0.65,0.89-1.89,1.08-2.77,0.43c-0.89-0.65-1.08-1.89-0.43-2.77
				C-90.95,8.2-89.71,8-88.82,8.65z"/>
		</g>
		<g>
			<path class="st1" d="M-53.79,31.33c1.93,1.41,2.35,4.12,0.94,6.05c-1.41,1.93-4.12,2.35-6.05,0.94s-2.35-4.12-0.94-6.05
				C-58.43,30.35-55.72,29.93-53.79,31.33z"/>
			<path class="st0" d="M-55.17,33.23c0.89,0.65,1.08,1.89,0.43,2.77s-1.89,1.08-2.77,0.43c-0.89-0.65-1.08-1.89-0.43-2.77
				C-57.3,32.78-56.06,32.58-55.17,33.23z"/>
		</g>
	</g>
	<g>
		<polygon class="st1" points="-104.03,87.49 -101.43,87.28 -100.42,70.57 -112.91,65.02 -112.29,72.7 -103.89,72.96 		"/>
		<polygon class="st1" points="-121.18,88.87 -118.58,88.66 -121.04,74.34 -112.79,72.74 -113.41,65.06 -124.85,72.54 		"/>
	</g>
	<path class="st2" d="M-119.05,68.3c-0.26-3.24,2.15-6.08,5.39-6.34s6.08,2.15,6.34,5.39c0.26,3.24-2.15,6.08-5.39,6.34
		C-115.95,73.96-118.79,71.54-119.05,68.3z"/>
	<path class="st0" d="M-116.12,68.07c-0.13-1.62,1.08-3.04,2.69-3.17c1.62-0.13,3.04,1.08,3.17,2.69c0.13,1.62-1.08,3.04-2.69,3.17
		C-114.57,70.89-115.98,69.68-116.12,68.07z"/>
	<path class="st2" d="M-119.05,38.97c-0.26-3.24,2.15-6.08,5.39-6.34c3.24-0.26,6.08,2.15,6.34,5.39c0.26,3.24-2.15,6.08-5.39,6.34
		C-115.95,44.63-118.79,42.21-119.05,38.97z"/>
	<path class="st0" d="M-116.12,38.74c-0.13-1.62,1.08-3.04,2.69-3.17c1.62-0.13,3.04,1.08,3.17,2.69c0.13,1.62-1.08,3.04-2.69,3.17
		C-114.57,41.56-115.98,40.35-116.12,38.74z"/>
</g>
<rect x="178.16" y="57.88" class="st3" width="5.93" height="30.9"/>
<rect x="148.11" y="93.83" class="st3" width="66.03" height="1.75"/>
<path class="st2" d="M212.19,65.14c0,3.1-13.91,5.61-31.07,5.61c-17.16,0-31.07-2.51-31.07-5.61c0-3.1,13.91-5.61,31.07-5.61
	C198.28,59.54,212.19,62.05,212.19,65.14z"/>
<rect x="150.06" y="49.73" class="st2" width="62.14" height="15.33"/>
<path class="st4" d="M212.19,49.55c0,3.1-13.91,5.61-31.07,5.61c-17.16,0-31.07-2.51-31.07-5.61c0-3.1,13.91-5.61,31.07-5.61
	C198.28,43.94,212.19,46.45,212.19,49.55z"/>
<g>
	<path class="st3" d="M207.51,61.29c0,2.29-1.65,4.37-3.69,4.64c-2.04,0.27-3.69-1.37-3.69-3.66s1.65-4.37,3.69-4.64
		C205.86,57.36,207.51,58.99,207.51,61.29z"/>
	<path class="st4" d="M205.72,61.52c0,1.18-0.85,2.25-1.9,2.39c-1.05,0.14-1.9-0.71-1.9-1.89c0-1.18,0.85-2.25,1.9-2.39
		C204.87,59.5,205.72,60.34,205.72,61.52z"/>
</g>
<g>
	<path class="st4" d="M188.63,63.99c0,0.67-0.54,1.21-1.21,1.21c-0.67,0-1.21-0.54-1.21-1.21c0-0.67,0.54-1.21,1.21-1.21
		C188.09,62.78,188.63,63.32,188.63,63.99z"/>
	<path class="st4" d="M182.33,63.99c0,0.67-0.54,1.21-1.21,1.21c-0.67,0-1.21-0.54-1.21-1.21c0-0.67,0.54-1.21,1.21-1.21
		C181.79,62.78,182.33,63.32,182.33,63.99z"/>
	<path class="st4" d="M176.04,63.99c0,0.67-0.54,1.21-1.21,1.21c-0.67,0-1.21-0.54-1.21-1.21c0-0.67,0.54-1.21,1.21-1.21
		C175.49,62.78,176.04,63.32,176.04,63.99z"/>
</g>
<path class="st2" d="M212.19,44.47c0,3.1-13.91,5.61-31.07,5.61c-17.16,0-31.07-2.51-31.07-5.61c0-3.1,13.91-5.61,31.07-5.61
	C198.28,38.86,212.19,41.37,212.19,44.47z"/>
<rect x="150.06" y="29.05" class="st2" width="62.14" height="15.33"/>
<path class="st4" d="M212.19,28.87c0,3.1-13.91,5.61-31.07,5.61c-17.16,0-31.07-2.51-31.07-5.61s13.91-5.61,31.07-5.61
	C198.28,23.26,212.19,25.77,212.19,28.87z"/>
<g>
	<path class="st3" d="M207.51,40.61c0,2.29-1.65,4.37-3.69,4.64c-2.04,0.27-3.69-1.37-3.69-3.66c0-2.29,1.65-4.37,3.69-4.64
		C205.86,36.68,207.51,38.32,207.51,40.61z"/>
	<path class="st4" d="M205.72,40.84c0,1.18-0.85,2.25-1.9,2.39c-1.05,0.14-1.9-0.71-1.9-1.89c0-1.18,0.85-2.25,1.9-2.39
		C204.87,38.82,205.72,39.66,205.72,40.84z"/>
</g>
<g>
	<path class="st4" d="M188.63,43.31c0,0.67-0.54,1.21-1.21,1.21c-0.67,0-1.21-0.54-1.21-1.21c0-0.67,0.54-1.21,1.21-1.21
		C188.09,42.1,188.63,42.64,188.63,43.31z"/>
	<path class="st4" d="M182.33,43.31c0,0.67-0.54,1.21-1.21,1.21c-0.67,0-1.21-0.54-1.21-1.21c0-0.67,0.54-1.21,1.21-1.21
		C181.79,42.1,182.33,42.64,182.33,43.31z"/>
	<path class="st4" d="M176.04,43.31c0,0.67-0.54,1.21-1.21,1.21c-0.67,0-1.21-0.54-1.21-1.21c0-0.67,0.54-1.21,1.21-1.21
		C175.49,42.1,176.04,42.64,176.04,43.31z"/>
</g>
<path class="st2" d="M212.19,23.79c0,3.1-13.91,5.61-31.07,5.61c-17.16,0-31.07-2.51-31.07-5.61c0-3.1,13.91-5.61,31.07-5.61
	C198.28,18.18,212.19,20.69,212.19,23.79z"/>
<rect x="150.06" y="8.37" class="st2" width="62.14" height="15.33"/>
<ellipse class="st4" cx="181.13" cy="8.19" rx="31.07" ry="5.61"/>
<g>
	<path class="st3" d="M207.51,19.93c0,2.29-1.65,4.37-3.69,4.64c-2.04,0.27-3.69-1.37-3.69-3.66s1.65-4.37,3.69-4.64
		C205.86,16,207.51,17.64,207.51,19.93z"/>
	<path class="st4" d="M205.72,20.17c0,1.18-0.85,2.25-1.9,2.39c-1.05,0.14-1.9-0.71-1.9-1.89c0-1.18,0.85-2.25,1.9-2.39
		C204.87,18.14,205.72,18.99,205.72,20.17z"/>
</g>
<g>
	<path class="st4" d="M188.63,22.63c0,0.67-0.54,1.21-1.21,1.21c-0.67,0-1.21-0.54-1.21-1.21s0.54-1.21,1.21-1.21
		C188.09,21.42,188.63,21.96,188.63,22.63z"/>
	<path class="st4" d="M182.33,22.63c0,0.67-0.54,1.21-1.21,1.21c-0.67,0-1.21-0.54-1.21-1.21s0.54-1.21,1.21-1.21
		C181.79,21.42,182.33,21.96,182.33,22.63z"/>
	<path class="st4" d="M176.04,22.63c0,0.67-0.54,1.21-1.21,1.21c-0.67,0-1.21-0.54-1.21-1.21s0.54-1.21,1.21-1.21
		C175.49,21.42,176.04,21.96,176.04,22.63z"/>
</g>
<path class="st2" d="M189.22,90.45c0,1.18-0.95,2.13-2.12,2.13h-11.94c-1.17,0-2.12-0.95-2.12-2.13v-3.72
	c0-1.18,0.95-2.13,2.12-2.13h11.94c1.17,0,2.12,0.95,2.12,2.13V90.45z"/>
<path class="st4" d="M193.93,97.32c0,1.94-1.57,3.51-3.5,3.51h-18.6c-1.93,0-3.5-1.57-3.5-3.51V92.1c0-1.94,1.57-3.51,3.5-3.51h18.6
	c1.93,0,3.5,1.57,3.5,3.51V97.32z"/>
<g>
	<path class="st4" d="M151.75,94.71c0,1.7-1.37,3.07-3.06,3.07c-1.69,0-3.06-1.37-3.06-3.07c0-1.7,1.37-3.07,3.06-3.07
		C150.38,91.64,151.75,93.01,151.75,94.71z"/>
	<path class="st4" d="M216.63,94.71c0,1.7-1.37,3.07-3.06,3.07c-1.69,0-3.06-1.37-3.06-3.07c0-1.7,1.37-3.07,3.06-3.07
		C215.26,91.64,216.63,93.01,216.63,94.71z"/>
</g>
<path class="st2" d="M94.33,25.32c-0.26,0-0.52,0.03-0.78,0.04c-2.17-6.9-8.61-11.9-16.22-11.9c-1.62,0-3.19,0.24-4.68,0.67
	c-1.64-8.11-8.81-14.22-17.4-14.22c-8.53,0-15.66,6.02-17.36,14.05c-1.29-0.31-2.63-0.5-4.02-0.5c-7.61,0-14.05,5-16.21,11.89
	c-0.22-0.01-0.44-0.03-0.66-0.03c-9.39,0-17,7.61-17,17s7.61,17,17,17h77.33c9.39,0,17-7.61,17-17S103.72,25.32,94.33,25.32z"/>
<path class="st5" d="M30.32,38.28c-1.89,0-3.46,1.57-3.46,3.46c0,1.89,1.57,3.46,3.46,3.46c1.89,0,3.46-1.57,3.46-3.46
	C33.79,39.7,32.21,38.12,30.32,38.28z"/>
<path class="st5" d="M9.55,66.13c-1.89,0-3.46,1.57-3.46,3.46c0,1.89,1.57,3.46,3.46,3.46c1.89,0,3.46-1.57,3.46-3.46
	C13.02,67.7,11.44,66.13,9.55,66.13z"/>
<path class="st0" d="M96.73,77.54c-3.15,0-5.66,2.2-6.45,5.04H78.16v-5.66v-1.43c2.83-0.79,5.04-3.3,5.04-6.45
	c0-3.62-2.99-6.61-6.61-6.61c-3.62,0-6.61,2.99-6.61,6.61c0,3.15,2.2,5.66,5.04,6.45v1.43v5.66H63.05V58.06v-4.44v-2.99v-3.06v-6.38
	h0.03v-3.15h-0.03v-5.76h0.01v-1.43c2.83-0.79,5.04-3.3,5.04-6.45c0-3.62-2.99-6.61-6.61-6.61c-3.62,0-6.61,2.99-6.61,6.61
	c0,3.15,2.2,5.66,5.04,6.45v0.65h-0.01v1.77v2.31v2.73v0.41v56.43c0,1.26-0.94,2.2-2.36,2.2h-8.97c-1.26,0-2.36-1.1-2.36-2.36V44.97
	c0-3.15-2.52-5.66-5.66-5.66h-3.93c-0.79-2.83-3.3-5.04-6.45-5.04c-3.62,0-6.61,2.99-6.61,6.61c0,3.62,2.99,6.61,6.61,6.61
	c3.15,0,5.66-2.2,6.45-5.04h3.93c1.35,0,2.56,1,2.66,2.32v9.01h0.02v13.53H15.85c-0.79-2.83-3.3-5.04-6.45-5.04
	c-3.62,0-6.61,2.99-6.61,6.61c0,3.62,2.99,6.61,6.61,6.61c3.15,0,5.66-2.2,6.45-5.04h12.12v10.23c-2.83,0.79-5.04,3.3-5.04,6.45
	c0,3.62,2.99,6.61,6.61,6.61s6.61-2.99,6.61-6.61c0-3.15-2.2-5.66-5.04-6.45V70.46h11.96v24.86c0,2.99,2.52,5.51,5.51,5.51h8.97
	c2.99,0,5.51-2.52,5.51-5.51v-9.28h27.22c0.79,2.83,3.3,5.04,6.45,5.04c3.62,0,6.61-2.99,6.61-6.61S100.5,77.54,96.73,77.54z
	 M30.32,44.34c-1.89,0-3.46-1.57-3.46-3.46c0-1.89,1.57-3.46,3.46-3.46c1.89-0.16,3.46,1.42,3.46,3.46
	C33.79,42.76,32.21,44.34,30.32,44.34z M9.55,72.19c-1.89,0-3.46-1.57-3.46-3.46s1.57-3.46,3.46-3.46c1.89,0,3.46,1.57,3.46,3.46
	S11.44,72.19,9.55,72.19z M33.16,86.98c0,1.89-1.57,3.46-3.46,3.46c-1.89,0-3.46-1.57-3.46-3.46c0-1.89,1.57-3.46,3.46-3.46
	C31.58,83.52,33.16,85.09,33.16,86.98z M58.03,24.4c0-1.89,1.57-3.46,3.46-3.46c1.89,0,3.46,1.57,3.46,3.46
	c0,1.89-1.57,3.46-3.46,3.46C59.6,27.86,58.03,26.29,58.03,24.4z M73.12,69.03c0-1.89,1.57-3.46,3.46-3.46
	c1.89,0,3.46,1.57,3.46,3.46c0,1.89-1.57,3.46-3.46,3.46C74.7,72.5,73.12,70.92,73.12,69.03z M96.73,87.61
	c-1.89,0-3.46-1.57-3.46-3.46c0-1.89,1.57-3.46,3.46-3.46c1.89,0,3.46,1.57,3.46,3.46C100.19,86.03,98.77,87.61,96.73,87.61z"/>
</svg>
