<?xml version="1.0" encoding="utf-8"?>
<!-- Generator: Adobe Illustrator 23.0.3, SVG Export Plug-In . SVG Version: 6.00 Build 0)  -->
<svg version="1.1" id="Layer_1" xmlns="http://www.w3.org/2000/svg" xmlns:xlink="http://www.w3.org/1999/xlink" x="0px" y="0px"
	 viewBox="0 0 86.81 69.64" style="enable-background:new 0 0 86.81 69.64;" xml:space="preserve">
<style type="text/css">
	.st0{fill:#77CBC6;}
	.st1{fill:#5EB7B2;}
	.st2{fill:#BDE4E1;}
	.st3{fill:#5EB7B1;}
	.st4{fill:#75CCC7;}
	.st5{fill:#FFFFFF;}
</style>
<g>
	
		<rect x="-72.35" y="11.97" transform="matrix(0.3197 -0.9475 0.9475 0.3197 -55.7108 -46.8937)" class="st0" width="23.67" height="6.76"/>
	<polygon class="st1" points="-111.41,9.77 -116.21,5.01 -92.09,-22.91 -87.29,-18.15 	"/>
	<polygon class="st0" points="-115.47,6.56 -110.44,6.91 -110.91,34.22 -115.94,33.87 	"/>
	<rect x="-79.4" y="61.65" class="st0" width="26.87" height="5.19"/>
	<path class="st1" d="M-49.18,69.9c0,0.25-0.21,0.46-0.46,0.46h-32.64c-0.25,0-0.46-0.21-0.46-0.46v-4.59
		c0-0.25,0.21-0.46,0.46-0.46h32.64c0.25,0,0.46,0.21,0.46,0.46V69.9L-49.18,69.9z"/>
	<path class="st2" d="M-50.3,61.65V31.43c0-8.65-7.01-15.66-15.66-15.66s-15.66,7.01-15.66,15.66v30.22H-50.3L-50.3,61.65z"/>
	<ellipse class="st1" cx="-65.96" cy="29.36" rx="7.89" ry="7.89"/>
	<path class="st0" d="M-62.35,29.36c0,2-1.62,3.62-3.62,3.62c-2,0-3.62-1.62-3.62-3.62s1.62-3.62,3.62-3.62
		C-63.96,25.74-62.35,27.36-62.35,29.36z"/>
	<path class="st2" d="M-96.01-25.34c-2.8,3.83-1.96,9.21,1.87,12L-62.32,9.9c3.83,2.8,9.21,1.96,12-1.87c2.8-3.83,1.96-9.21-1.87-12
		l-31.82-23.24C-87.84-30-93.22-29.17-96.01-25.34z"/>
	<g>
		<g>
			<path class="st1" d="M-87.44-24.43c1.93,1.41,2.35,4.12,0.94,6.05c-1.41,1.93-4.12,2.35-6.05,0.94
				c-1.93-1.41-2.35-4.12-0.94-6.05S-89.37-25.84-87.44-24.43z"/>
			<path class="st0" d="M-88.82-22.54c0.89,0.65,1.08,1.89,0.43,2.77c-0.65,0.89-1.89,1.08-2.77,0.43
				c-0.89-0.65-1.08-1.89-0.43-2.77C-90.95-22.99-89.71-23.19-88.82-22.54z"/>
		</g>
		<g>
			<path class="st1" d="M-53.79,0.14c1.93,1.41,2.35,4.12,0.94,6.05c-1.41,1.93-4.12,2.35-6.05,0.94s-2.35-4.12-0.94-6.05
				C-58.43-0.84-55.72-1.26-53.79,0.14z"/>
			<path class="st0" d="M-55.17,2.04c0.89,0.65,1.08,1.89,0.43,2.77s-1.89,1.08-2.77,0.43c-0.89-0.65-1.08-1.89-0.43-2.77
				C-57.3,1.59-56.06,1.39-55.17,2.04z"/>
		</g>
	</g>
	<g>
		<polygon class="st1" points="-104.03,56.3 -101.43,56.09 -100.42,39.38 -112.91,33.83 -112.29,41.51 -103.89,41.77 		"/>
		<polygon class="st1" points="-121.18,57.68 -118.58,57.47 -121.04,43.15 -112.79,41.55 -113.41,33.87 -124.85,41.35 		"/>
	</g>
	<path class="st2" d="M-119.05,37.11c-0.26-3.24,2.15-6.08,5.39-6.34s6.08,2.15,6.34,5.39c0.26,3.24-2.15,6.08-5.39,6.34
		C-115.95,42.77-118.79,40.35-119.05,37.11z"/>
	<path class="st0" d="M-116.12,36.88c-0.13-1.62,1.08-3.04,2.69-3.17c1.62-0.13,3.04,1.08,3.17,2.69c0.13,1.62-1.08,3.04-2.69,3.17
		C-114.57,39.7-115.98,38.49-116.12,36.88z"/>
	<path class="st2" d="M-119.05,7.78c-0.26-3.24,2.15-6.08,5.39-6.34s6.08,2.15,6.34,5.39c0.26,3.24-2.15,6.08-5.39,6.34
		C-115.95,13.44-118.79,11.02-119.05,7.78z"/>
	<path class="st0" d="M-116.12,7.55c-0.13-1.62,1.08-3.04,2.69-3.17c1.62-0.13,3.04,1.08,3.17,2.69c0.13,1.62-1.08,3.04-2.69,3.17
		C-114.57,10.37-115.98,9.16-116.12,7.55z"/>
</g>
<rect x="178.16" y="26.69" class="st3" width="5.93" height="30.9"/>
<rect x="148.11" y="62.64" class="st3" width="66.03" height="1.75"/>
<path class="st2" d="M212.19,33.96c0,3.1-13.91,5.61-31.07,5.61c-17.16,0-31.07-2.51-31.07-5.61c0-3.1,13.91-5.61,31.07-5.61
	C198.28,28.35,212.19,30.86,212.19,33.96z"/>
<rect x="150.06" y="18.54" class="st2" width="62.14" height="15.33"/>
<path class="st4" d="M212.19,18.36c0,3.1-13.91,5.61-31.07,5.61c-17.16,0-31.07-2.51-31.07-5.61c0-3.1,13.91-5.61,31.07-5.61
	C198.28,12.75,212.19,15.26,212.19,18.36z"/>
<g>
	<path class="st3" d="M207.51,30.1c0,2.29-1.65,4.37-3.69,4.64c-2.04,0.27-3.69-1.37-3.69-3.66s1.65-4.37,3.69-4.64
		C205.86,26.17,207.51,27.81,207.51,30.1z"/>
	<path class="st4" d="M205.72,30.34c0,1.18-0.85,2.25-1.9,2.39c-1.05,0.14-1.9-0.71-1.9-1.89c0-1.18,0.85-2.25,1.9-2.39
		C204.87,28.31,205.72,29.15,205.72,30.34z"/>
</g>
<g>
	<path class="st4" d="M188.63,32.8c0,0.67-0.54,1.21-1.21,1.21c-0.67,0-1.21-0.54-1.21-1.21c0-0.67,0.54-1.21,1.21-1.21
		C188.09,31.59,188.63,32.13,188.63,32.8z"/>
	<path class="st4" d="M182.33,32.8c0,0.67-0.54,1.21-1.21,1.21c-0.67,0-1.21-0.54-1.21-1.21c0-0.67,0.54-1.21,1.21-1.21
		C181.79,31.59,182.33,32.13,182.33,32.8z"/>
	<path class="st4" d="M176.04,32.8c0,0.67-0.54,1.21-1.21,1.21c-0.67,0-1.21-0.54-1.21-1.21c0-0.67,0.54-1.21,1.21-1.21
		C175.49,31.59,176.04,32.13,176.04,32.8z"/>
</g>
<path class="st2" d="M212.19,13.28c0,3.1-13.91,5.61-31.07,5.61c-17.16,0-31.07-2.51-31.07-5.61c0-3.1,13.91-5.61,31.07-5.61
	C198.28,7.67,212.19,10.18,212.19,13.28z"/>
<rect x="150.06" y="-2.13" class="st2" width="62.14" height="15.33"/>
<path class="st4" d="M212.19-2.32c0,3.1-13.91,5.61-31.07,5.61c-17.16,0-31.07-2.51-31.07-5.61s13.91-5.61,31.07-5.61
	C198.28-7.93,212.19-5.42,212.19-2.32z"/>
<g>
	<path class="st3" d="M207.51,9.42c0,2.29-1.65,4.37-3.69,4.64c-2.04,0.27-3.69-1.37-3.69-3.66s1.65-4.37,3.69-4.64
		C205.86,5.49,207.51,7.13,207.51,9.42z"/>
	<path class="st4" d="M205.72,9.66c0,1.18-0.85,2.25-1.9,2.39c-1.05,0.14-1.9-0.71-1.9-1.89c0-1.18,0.85-2.25,1.9-2.39
		C204.87,7.63,205.72,8.48,205.72,9.66z"/>
</g>
<g>
	<path class="st4" d="M188.63,12.12c0,0.67-0.54,1.21-1.21,1.21c-0.67,0-1.21-0.54-1.21-1.21c0-0.67,0.54-1.21,1.21-1.21
		C188.09,10.91,188.63,11.45,188.63,12.12z"/>
	<path class="st4" d="M182.33,12.12c0,0.67-0.54,1.21-1.21,1.21c-0.67,0-1.21-0.54-1.21-1.21c0-0.67,0.54-1.21,1.21-1.21
		C181.79,10.91,182.33,11.45,182.33,12.12z"/>
	<path class="st4" d="M176.04,12.12c0,0.67-0.54,1.21-1.21,1.21c-0.67,0-1.21-0.54-1.21-1.21c0-0.67,0.54-1.21,1.21-1.21
		C175.49,10.91,176.04,11.45,176.04,12.12z"/>
</g>
<path class="st2" d="M212.19-7.4c0,3.1-13.91,5.61-31.07,5.61c-17.16,0-31.07-2.51-31.07-5.61c0-3.1,13.91-5.61,31.07-5.61
	C198.28-13.01,212.19-10.5,212.19-7.4z"/>
<rect x="150.06" y="-22.81" class="st2" width="62.14" height="15.33"/>
<ellipse class="st4" cx="181.13" cy="-23" rx="31.07" ry="5.61"/>
<g>
	<path class="st3" d="M207.51-11.26c0,2.29-1.65,4.37-3.69,4.64c-2.04,0.27-3.69-1.37-3.69-3.66s1.65-4.37,3.69-4.64
		C205.86-15.19,207.51-13.55,207.51-11.26z"/>
	<path class="st4" d="M205.72-11.02c0,1.18-0.85,2.25-1.9,2.39c-1.05,0.14-1.9-0.71-1.9-1.89s0.85-2.25,1.9-2.39
		C204.87-13.05,205.72-12.2,205.72-11.02z"/>
</g>
<g>
	<path class="st4" d="M188.63-8.56c0,0.67-0.54,1.21-1.21,1.21c-0.67,0-1.21-0.54-1.21-1.21c0-0.67,0.54-1.21,1.21-1.21
		C188.09-9.77,188.63-9.22,188.63-8.56z"/>
	<path class="st4" d="M182.33-8.56c0,0.67-0.54,1.21-1.21,1.21c-0.67,0-1.21-0.54-1.21-1.21c0-0.67,0.54-1.21,1.21-1.21
		C181.79-9.77,182.33-9.22,182.33-8.56z"/>
	<path class="st4" d="M176.04-8.56c0,0.67-0.54,1.21-1.21,1.21c-0.67,0-1.21-0.54-1.21-1.21c0-0.67,0.54-1.21,1.21-1.21
		C175.49-9.77,176.04-9.22,176.04-8.56z"/>
</g>
<path class="st2" d="M189.22,59.26c0,1.18-0.95,2.13-2.12,2.13h-11.94c-1.17,0-2.12-0.95-2.12-2.13v-3.72
	c0-1.18,0.95-2.13,2.12-2.13h11.94c1.17,0,2.12,0.95,2.12,2.13V59.26z"/>
<path class="st4" d="M193.93,66.13c0,1.94-1.57,3.51-3.5,3.51h-18.6c-1.93,0-3.5-1.57-3.5-3.51v-5.22c0-1.94,1.57-3.51,3.5-3.51
	h18.6c1.93,0,3.5,1.57,3.5,3.51V66.13z"/>
<g>
	<path class="st4" d="M151.75,63.52c0,1.7-1.37,3.07-3.06,3.07c-1.69,0-3.06-1.37-3.06-3.07c0-1.7,1.37-3.07,3.06-3.07
		C150.38,60.45,151.75,61.82,151.75,63.52z"/>
	<path class="st4" d="M216.63,63.52c0,1.7-1.37,3.07-3.06,3.07c-1.69,0-3.06-1.37-3.06-3.07c0-1.7,1.37-3.07,3.06-3.07
		C215.26,60.45,216.63,61.82,216.63,63.52z"/>
</g>
<polygon class="st3" points="51.11,55.18 44.59,55.18 42.85,55.18 36.33,55.18 32.85,67.14 42.85,67.14 44.59,67.14 54.59,67.14 "/>
<path class="st2" d="M0.62,44.48v11.11c0,0.88,0.71,1.59,1.59,1.59h83.01c0.88,0,1.59-0.71,1.59-1.59V44.48H0.62z"/>
<path class="st3" d="M85.22,0H2.21C1.33,0,0.62,0.71,0.62,1.59v42.89h86.19V1.59C86.81,0.71,86.1,0,85.22,0z"/>
<rect x="4.35" y="3.39" class="st4" width="78.72" height="41.08"/>
<path class="st2" d="M61.11,67.9c0,0.9-0.73,1.63-1.63,1.63H27.96c-0.9,0-1.63-0.73-1.63-1.63l0,0c0-0.9,0.73-1.63,1.63-1.63h31.52
	C60.38,66.27,61.11,67,61.11,67.9L61.11,67.9z"/>
<g>
	<g>
		<path class="st5" d="M14.78,11.19h-0.02l-1.15,0.62l-0.17-0.68l1.45-0.77h0.76v6.62h-0.87V11.19z"/>
		<path class="st5" d="M22.46,13.59c0,2.25-0.84,3.49-2.3,3.49c-1.29,0-2.17-1.21-2.19-3.4c0-2.22,0.96-3.44,2.3-3.44
			C21.66,10.24,22.46,11.48,22.46,13.59z M18.86,13.69c0,1.72,0.53,2.7,1.34,2.7c0.92,0,1.35-1.07,1.35-2.76
			c0-1.63-0.42-2.7-1.34-2.7C19.43,10.93,18.86,11.89,18.86,13.69z"/>
		<path class="st5" d="M27.68,13.59c0,2.25-0.83,3.49-2.3,3.49c-1.29,0-2.17-1.21-2.19-3.4c0-2.22,0.96-3.44,2.3-3.44
			C26.89,10.24,27.68,11.48,27.68,13.59z M24.09,13.69c0,1.72,0.53,2.7,1.34,2.7c0.92,0,1.35-1.07,1.35-2.76
			c0-1.63-0.42-2.7-1.34-2.7C24.66,10.93,24.09,11.89,24.09,13.69z"/>
		<path class="st5" d="M30.45,11.19h-0.02l-1.15,0.62l-0.17-0.68l1.45-0.77h0.76v6.62h-0.87V11.19z"/>
		<path class="st5" d="M38.13,13.59c0,2.25-0.83,3.49-2.3,3.49c-1.29,0-2.17-1.21-2.19-3.4c0-2.22,0.96-3.44,2.3-3.44
			C37.33,10.24,38.13,11.48,38.13,13.59z M34.53,13.69c0,1.72,0.53,2.7,1.34,2.7c0.92,0,1.35-1.07,1.35-2.76
			c0-1.63-0.42-2.7-1.34-2.7C35.1,10.93,34.53,11.89,34.53,13.69z"/>
		<path class="st5" d="M40.9,11.19h-0.02l-1.15,0.62l-0.17-0.68L41,10.35h0.76v6.62H40.9V11.19z"/>
		<path class="st5" d="M46.12,11.19H46.1l-1.15,0.62l-0.17-0.68l1.45-0.77h0.76v6.62h-0.87V11.19z"/>
		<path class="st5" d="M51.34,11.19h-0.02l-1.15,0.62L50,11.13l1.45-0.77h0.76v6.62h-0.87V11.19z"/>
		<path class="st5" d="M59.02,13.59c0,2.25-0.84,3.49-2.3,3.49c-1.29,0-2.17-1.21-2.19-3.4c0-2.22,0.96-3.44,2.3-3.44
			C58.22,10.24,59.02,11.48,59.02,13.59z M55.42,13.69c0,1.72,0.53,2.7,1.34,2.7c0.92,0,1.35-1.07,1.35-2.76
			c0-1.63-0.42-2.7-1.34-2.7C55.99,10.93,55.42,11.89,55.42,13.69z"/>
		<path class="st5" d="M61.79,11.19h-0.02l-1.15,0.62l-0.17-0.68l1.45-0.77h0.76v6.62h-0.87V11.19z"/>
		<path class="st5" d="M67.01,11.19h-0.02l-1.15,0.62l-0.17-0.68l1.45-0.77h0.76v6.62h-0.87V11.19z"/>
		<path class="st5" d="M74.69,13.59c0,2.25-0.84,3.49-2.3,3.49c-1.29,0-2.17-1.21-2.19-3.4c0-2.22,0.96-3.44,2.3-3.44
			C73.89,10.24,74.69,11.48,74.69,13.59z M71.09,13.69c0,1.72,0.53,2.7,1.34,2.7c0.92,0,1.35-1.07,1.35-2.76
			c0-1.63-0.42-2.7-1.34-2.7C71.66,10.93,71.09,11.89,71.09,13.69z"/>
	</g>
	<g>
		<path class="st5" d="M14.78,21.51h-0.02l-1.15,0.62l-0.17-0.68l1.45-0.77h0.76v6.62h-0.87V21.51z"/>
		<path class="st5" d="M20,21.51h-0.02l-1.15,0.62l-0.17-0.68l1.45-0.77h0.76v6.62H20V21.51z"/>
		<path class="st5" d="M27.68,23.91c0,2.25-0.83,3.49-2.3,3.49c-1.29,0-2.17-1.21-2.19-3.4c0-2.22,0.96-3.44,2.3-3.44
			C26.89,20.56,27.68,21.81,27.68,23.91z M24.09,24.02c0,1.72,0.53,2.7,1.34,2.7c0.92,0,1.35-1.07,1.35-2.76
			c0-1.63-0.42-2.7-1.34-2.7C24.66,21.26,24.09,22.21,24.09,24.02z"/>
		<path class="st5" d="M30.45,21.51h-0.02l-1.15,0.62l-0.17-0.68l1.45-0.77h0.76v6.62h-0.87V21.51z"/>
		<path class="st5" d="M38.13,23.91c0,2.25-0.83,3.49-2.3,3.49c-1.29,0-2.17-1.21-2.19-3.4c0-2.22,0.96-3.44,2.3-3.44
			C37.33,20.56,38.13,21.81,38.13,23.91z M34.53,24.02c0,1.72,0.53,2.7,1.34,2.7c0.92,0,1.35-1.07,1.35-2.76
			c0-1.63-0.42-2.7-1.34-2.7C35.1,21.26,34.53,22.21,34.53,24.02z"/>
		<path class="st5" d="M40.9,21.51h-0.02l-1.15,0.62l-0.17-0.68L41,20.68h0.76v6.62H40.9V21.51z"/>
		<path class="st5" d="M48.57,23.91c0,2.25-0.84,3.49-2.3,3.49c-1.29,0-2.17-1.21-2.19-3.4c0-2.22,0.96-3.44,2.3-3.44
			C47.78,20.56,48.57,21.81,48.57,23.91z M44.98,24.02c0,1.72,0.53,2.7,1.34,2.7c0.92,0,1.35-1.07,1.35-2.76
			c0-1.63-0.42-2.7-1.34-2.7C45.55,21.26,44.98,22.21,44.98,24.02z"/>
		<path class="st5" d="M51.34,21.51h-0.02l-1.15,0.62L50,21.45l1.45-0.77h0.76v6.62h-0.87V21.51z"/>
		<path class="st5" d="M59.02,23.91c0,2.25-0.84,3.49-2.3,3.49c-1.29,0-2.17-1.21-2.19-3.4c0-2.22,0.96-3.44,2.3-3.44
			C58.22,20.56,59.02,21.81,59.02,23.91z M55.42,24.02c0,1.72,0.53,2.7,1.34,2.7c0.92,0,1.35-1.07,1.35-2.76
			c0-1.63-0.42-2.7-1.34-2.7C55.99,21.26,55.42,22.21,55.42,24.02z"/>
		<path class="st5" d="M61.79,21.51h-0.02l-1.15,0.62l-0.17-0.68l1.45-0.77h0.76v6.62h-0.87V21.51z"/>
		<path class="st5" d="M69.46,23.91c0,2.25-0.84,3.49-2.3,3.49c-1.29,0-2.17-1.21-2.19-3.4c0-2.22,0.96-3.44,2.3-3.44
			C68.67,20.56,69.46,21.81,69.46,23.91z M65.87,24.02c0,1.72,0.53,2.7,1.34,2.7c0.92,0,1.35-1.07,1.35-2.76
			c0-1.63-0.42-2.7-1.34-2.7C66.44,21.26,65.87,22.21,65.87,24.02z"/>
		<path class="st5" d="M74.69,23.91c0,2.25-0.84,3.49-2.3,3.49c-1.29,0-2.17-1.21-2.19-3.4c0-2.22,0.96-3.44,2.3-3.44
			C73.89,20.56,74.69,21.81,74.69,23.91z M71.09,24.02c0,1.72,0.53,2.7,1.34,2.7c0.92,0,1.35-1.07,1.35-2.76
			c0-1.63-0.42-2.7-1.34-2.7C71.66,21.26,71.09,22.21,71.09,24.02z"/>
	</g>
	<g>
		<path class="st5" d="M17.24,34.23c0,2.25-0.84,3.49-2.3,3.49c-1.29,0-2.17-1.21-2.19-3.4c0-2.22,0.96-3.44,2.3-3.44
			C16.44,30.89,17.24,32.13,17.24,34.23z M13.64,34.34c0,1.72,0.53,2.7,1.34,2.7c0.92,0,1.35-1.07,1.35-2.76
			c0-1.63-0.42-2.7-1.34-2.7C14.21,31.58,13.64,32.53,13.64,34.34z"/>
		<path class="st5" d="M20,31.83h-0.02l-1.15,0.62l-0.17-0.68L20.11,31h0.76v6.62H20V31.83z"/>
		<path class="st5" d="M25.23,31.83h-0.02l-1.15,0.62l-0.17-0.68L25.33,31h0.76v6.62h-0.87V31.83z"/>
		<path class="st5" d="M30.45,31.83h-0.02l-1.15,0.62l-0.17-0.68L30.55,31h0.76v6.62h-0.87V31.83z"/>
		<path class="st5" d="M35.67,31.83h-0.02l-1.15,0.62l-0.17-0.68L35.77,31h0.76v6.62h-0.87V31.83z"/>
		<path class="st5" d="M43.35,34.23c0,2.25-0.83,3.49-2.3,3.49c-1.29,0-2.17-1.21-2.19-3.4c0-2.22,0.96-3.44,2.3-3.44
			C42.56,30.89,43.35,32.13,43.35,34.23z M39.75,34.34c0,1.72,0.53,2.7,1.34,2.7c0.92,0,1.35-1.07,1.35-2.76
			c0-1.63-0.42-2.7-1.34-2.7C40.33,31.58,39.75,32.53,39.75,34.34z"/>
		<path class="st5" d="M48.57,34.23c0,2.25-0.84,3.49-2.3,3.49c-1.29,0-2.17-1.21-2.19-3.4c0-2.22,0.96-3.44,2.3-3.44
			C47.78,30.89,48.57,32.13,48.57,34.23z M44.98,34.34c0,1.72,0.53,2.7,1.34,2.7c0.92,0,1.35-1.07,1.35-2.76
			c0-1.63-0.42-2.7-1.34-2.7C45.55,31.58,44.98,32.53,44.98,34.34z"/>
		<path class="st5" d="M53.8,34.23c0,2.25-0.84,3.49-2.3,3.49c-1.29,0-2.17-1.21-2.19-3.4c0-2.22,0.96-3.44,2.3-3.44
			C53,30.89,53.8,32.13,53.8,34.23z M50.2,34.34c0,1.72,0.53,2.7,1.34,2.7c0.92,0,1.35-1.07,1.35-2.76c0-1.63-0.42-2.7-1.34-2.7
			C50.77,31.58,50.2,32.53,50.2,34.34z"/>
		<path class="st5" d="M59.02,34.23c0,2.25-0.84,3.49-2.3,3.49c-1.29,0-2.17-1.21-2.19-3.4c0-2.22,0.96-3.44,2.3-3.44
			C58.22,30.89,59.02,32.13,59.02,34.23z M55.42,34.34c0,1.72,0.53,2.7,1.34,2.7c0.92,0,1.35-1.07,1.35-2.76
			c0-1.63-0.42-2.7-1.34-2.7C55.99,31.58,55.42,32.53,55.42,34.34z"/>
		<path class="st5" d="M61.79,31.83h-0.02l-1.15,0.62l-0.17-0.68L61.89,31h0.76v6.62h-0.87V31.83z"/>
		<path class="st5" d="M69.46,34.23c0,2.25-0.84,3.49-2.3,3.49c-1.29,0-2.17-1.21-2.19-3.4c0-2.22,0.96-3.44,2.3-3.44
			C68.67,30.89,69.46,32.13,69.46,34.23z M65.87,34.34c0,1.72,0.53,2.7,1.34,2.7c0.92,0,1.35-1.07,1.35-2.76
			c0-1.63-0.42-2.7-1.34-2.7C66.44,31.58,65.87,32.53,65.87,34.34z"/>
		<path class="st5" d="M72.23,31.83h-0.02l-1.15,0.62l-0.17-0.68L72.33,31h0.76v6.62h-0.87V31.83z"/>
	</g>
</g>
<path class="st4" d="M45.99,51.39c0,1.26-1.02,2.28-2.28,2.28c-1.26,0-2.28-1.02-2.28-2.28c0-1.26,1.02-2.28,2.28-2.28
	C44.97,49.11,45.99,50.13,45.99,51.39z"/>
</svg>
