<?xml version="1.0" encoding="utf-8"?>
<!-- Generator: Adobe Illustrator 23.0.3, SVG Export Plug-In . SVG Version: 6.00 Build 0)  -->
<svg version="1.1" id="Layer_1" xmlns="http://www.w3.org/2000/svg" xmlns:xlink="http://www.w3.org/1999/xlink" x="0px" y="0px"
	 viewBox="0 0 47.96 99.25" style="enable-background:new 0 0 47.96 99.25;" xml:space="preserve">
<style type="text/css">
	.st0{fill:#77CBC6;}
	.st1{fill:#5EB7B2;}
	.st2{fill:#BDE4E1;}
	.st3{fill:#5EB7B1;}
	.st4{fill:#75CCC7;}
	.st5{opacity:0.4;fill:#75CCC7;}
</style>
<g>
	
		<rect x="286.89" y="35.88" transform="matrix(0.3197 -0.9475 0.9475 0.3197 166.0206 309.7556)" class="st0" width="23.67" height="6.76"/>
	<polygon class="st1" points="247.82,33.68 243.02,28.92 267.14,1 271.94,5.76 	"/>
	<polygon class="st0" points="243.76,30.47 248.79,30.82 248.32,58.13 243.29,57.78 	"/>
	<rect x="279.83" y="85.56" class="st0" width="26.87" height="5.19"/>
	<path class="st1" d="M310.05,93.81c0,0.25-0.21,0.46-0.46,0.46h-32.64c-0.25,0-0.46-0.21-0.46-0.46v-4.59
		c0-0.25,0.21-0.46,0.46-0.46h32.64c0.25,0,0.46,0.21,0.46,0.46V93.81L310.05,93.81z"/>
	<path class="st2" d="M308.93,85.56V55.34c0-8.65-7.01-15.66-15.66-15.66c-8.65,0-15.66,7.01-15.66,15.66v30.22H308.93L308.93,85.56
		z"/>
	<ellipse class="st1" cx="293.27" cy="53.27" rx="7.89" ry="7.89"/>
	<path class="st0" d="M296.88,53.27c0,2-1.62,3.62-3.62,3.62s-3.62-1.62-3.62-3.62s1.62-3.62,3.62-3.62
		C295.27,49.65,296.88,51.27,296.88,53.27z"/>
	<path class="st2" d="M263.22-1.43c-2.8,3.83-1.96,9.21,1.87,12l31.82,23.24c3.83,2.8,9.21,1.96,12-1.87c2.8-3.83,1.96-9.21-1.87-12
		L275.22-3.3C271.39-6.09,266.01-5.26,263.22-1.43z"/>
	<g>
		<g>
			<path class="st1" d="M271.79-0.52c1.93,1.41,2.35,4.12,0.94,6.05c-1.41,1.93-4.12,2.35-6.05,0.94s-2.35-4.12-0.94-6.05
				S269.86-1.93,271.79-0.52z"/>
			<path class="st0" d="M270.41,1.37c0.89,0.65,1.08,1.89,0.43,2.77c-0.65,0.89-1.89,1.08-2.77,0.43c-0.89-0.65-1.08-1.89-0.43-2.77
				C268.28,0.92,269.52,0.72,270.41,1.37z"/>
		</g>
		<g>
			<path class="st1" d="M305.44,24.05c1.93,1.41,2.35,4.12,0.94,6.05s-4.12,2.35-6.05,0.94c-1.93-1.41-2.35-4.12-0.94-6.05
				C300.8,23.07,303.51,22.65,305.44,24.05z"/>
			<path class="st0" d="M304.06,25.95c0.89,0.65,1.08,1.89,0.43,2.77c-0.65,0.88-1.89,1.08-2.77,0.43
				c-0.89-0.65-1.08-1.89-0.43-2.77C301.93,25.5,303.17,25.3,304.06,25.95z"/>
		</g>
	</g>
	<g>
		<polygon class="st1" points="255.2,80.21 257.8,80 258.81,63.29 246.32,57.74 246.94,65.42 255.34,65.68 		"/>
		<polygon class="st1" points="238.05,81.59 240.65,81.38 238.19,67.06 246.44,65.46 245.82,57.78 234.38,65.26 		"/>
	</g>
	<path class="st2" d="M240.18,61.02c-0.26-3.24,2.15-6.08,5.39-6.34c3.24-0.26,6.08,2.15,6.34,5.39c0.26,3.24-2.15,6.08-5.39,6.34
		C243.28,66.68,240.44,64.26,240.18,61.02z"/>
	<path class="st0" d="M243.11,60.79c-0.13-1.62,1.08-3.04,2.69-3.17c1.62-0.13,3.04,1.08,3.17,2.69c0.13,1.62-1.08,3.04-2.69,3.17
		C244.66,63.61,243.25,62.4,243.11,60.79z"/>
	<path class="st2" d="M240.18,31.69c-0.26-3.24,2.15-6.08,5.39-6.34c3.24-0.26,6.08,2.15,6.34,5.39c0.26,3.24-2.15,6.08-5.39,6.34
		C243.28,37.35,240.44,34.93,240.18,31.69z"/>
	<path class="st0" d="M243.11,31.46c-0.13-1.62,1.08-3.04,2.69-3.17c1.62-0.13,3.04,1.08,3.17,2.69c0.13,1.62-1.08,3.04-2.69,3.17
		C244.66,34.28,243.25,33.07,243.11,31.46z"/>
</g>
<rect x="166.67" y="56.3" class="st3" width="5.93" height="30.9"/>
<rect x="136.62" y="92.25" class="st3" width="66.03" height="1.75"/>
<path class="st2" d="M200.71,63.57c0,3.1-13.91,5.61-31.07,5.61c-17.16,0-31.07-2.51-31.07-5.61c0-3.1,13.91-5.61,31.07-5.61
	C186.8,57.96,200.71,60.47,200.71,63.57z"/>
<rect x="138.57" y="48.15" class="st2" width="62.14" height="15.33"/>
<path class="st4" d="M200.71,47.97c0,3.1-13.91,5.61-31.07,5.61c-17.16,0-31.07-2.51-31.07-5.61c0-3.1,13.91-5.61,31.07-5.61
	C186.8,42.36,200.71,44.87,200.71,47.97z"/>
<g>
	<path class="st3" d="M196.03,59.71c0,2.29-1.65,4.37-3.69,4.64c-2.04,0.27-3.69-1.37-3.69-3.66s1.65-4.37,3.69-4.64
		C194.37,55.78,196.03,57.42,196.03,59.71z"/>
	<path class="st4" d="M194.24,59.95c0,1.18-0.85,2.25-1.9,2.39c-1.05,0.14-1.9-0.71-1.9-1.89c0-1.18,0.85-2.25,1.9-2.39
		C193.39,57.92,194.24,58.77,194.24,59.95z"/>
</g>
<g>
	<path class="st4" d="M177.15,62.41c0,0.67-0.54,1.21-1.21,1.21c-0.67,0-1.21-0.54-1.21-1.21c0-0.67,0.54-1.21,1.21-1.21
		C176.6,61.2,177.15,61.74,177.15,62.41z"/>
	<path class="st4" d="M170.85,62.41c0,0.67-0.54,1.21-1.21,1.21c-0.67,0-1.21-0.54-1.21-1.21c0-0.67,0.54-1.21,1.21-1.21
		C170.31,61.2,170.85,61.74,170.85,62.41z"/>
	<path class="st4" d="M164.55,62.41c0,0.67-0.54,1.21-1.21,1.21c-0.67,0-1.21-0.54-1.21-1.21c0-0.67,0.54-1.21,1.21-1.21
		C164.01,61.2,164.55,61.74,164.55,62.41z"/>
</g>
<path class="st2" d="M200.71,42.89c0,3.1-13.91,5.61-31.07,5.61c-17.16,0-31.07-2.51-31.07-5.61c0-3.1,13.91-5.61,31.07-5.61
	C186.8,37.28,200.71,39.79,200.71,42.89z"/>
<rect x="138.57" y="27.48" class="st2" width="62.14" height="15.33"/>
<path class="st4" d="M200.71,27.29c0,3.1-13.91,5.61-31.07,5.61c-17.16,0-31.07-2.51-31.07-5.61s13.91-5.61,31.07-5.61
	C186.8,21.68,200.71,24.19,200.71,27.29z"/>
<g>
	<path class="st3" d="M196.03,39.03c0,2.29-1.65,4.37-3.69,4.64c-2.04,0.27-3.69-1.37-3.69-3.66c0-2.29,1.65-4.37,3.69-4.64
		C194.37,35.1,196.03,36.74,196.03,39.03z"/>
	<path class="st4" d="M194.24,39.27c0,1.18-0.85,2.25-1.9,2.39c-1.05,0.14-1.9-0.71-1.9-1.89c0-1.18,0.85-2.25,1.9-2.39
		C193.39,37.24,194.24,38.09,194.24,39.27z"/>
</g>
<g>
	<path class="st4" d="M177.15,41.73c0,0.67-0.54,1.21-1.21,1.21c-0.67,0-1.21-0.54-1.21-1.21c0-0.67,0.54-1.21,1.21-1.21
		C176.6,40.52,177.15,41.06,177.15,41.73z"/>
	<path class="st4" d="M170.85,41.73c0,0.67-0.54,1.21-1.21,1.21c-0.67,0-1.21-0.54-1.21-1.21c0-0.67,0.54-1.21,1.21-1.21
		C170.31,40.52,170.85,41.06,170.85,41.73z"/>
	<path class="st4" d="M164.55,41.73c0,0.67-0.54,1.21-1.21,1.21c-0.67,0-1.21-0.54-1.21-1.21c0-0.67,0.54-1.21,1.21-1.21
		C164.01,40.52,164.55,41.06,164.55,41.73z"/>
</g>
<path class="st2" d="M200.71,22.21c0,3.1-13.91,5.61-31.07,5.61c-17.16,0-31.07-2.51-31.07-5.61c0-3.1,13.91-5.61,31.07-5.61
	C186.8,16.6,200.71,19.11,200.71,22.21z"/>
<rect x="138.57" y="6.8" class="st2" width="62.14" height="15.33"/>
<ellipse class="st4" cx="169.64" cy="6.61" rx="31.07" ry="5.61"/>
<g>
	<path class="st3" d="M196.03,18.35c0,2.29-1.65,4.37-3.69,4.64c-2.04,0.27-3.69-1.37-3.69-3.66s1.65-4.37,3.69-4.64
		C194.37,14.42,196.03,16.06,196.03,18.35z"/>
	<path class="st4" d="M194.24,18.59c0,1.18-0.85,2.25-1.9,2.39c-1.05,0.14-1.9-0.71-1.9-1.89c0-1.18,0.85-2.25,1.9-2.39
		C193.39,16.56,194.24,17.41,194.24,18.59z"/>
</g>
<g>
	<path class="st4" d="M177.15,21.06c0,0.67-0.54,1.21-1.21,1.21c-0.67,0-1.21-0.54-1.21-1.21s0.54-1.21,1.21-1.21
		C176.6,19.84,177.15,20.39,177.15,21.06z"/>
	<path class="st4" d="M170.85,21.06c0,0.67-0.54,1.21-1.21,1.21c-0.67,0-1.21-0.54-1.21-1.21s0.54-1.21,1.21-1.21
		C170.31,19.84,170.85,20.39,170.85,21.06z"/>
	<path class="st4" d="M164.55,21.06c0,0.67-0.54,1.21-1.21,1.21c-0.67,0-1.21-0.54-1.21-1.21s0.54-1.21,1.21-1.21
		C164.01,19.84,164.55,20.39,164.55,21.06z"/>
</g>
<path class="st2" d="M177.73,88.87c0,1.18-0.95,2.13-2.12,2.13h-11.94c-1.17,0-2.12-0.95-2.12-2.13v-3.72
	c0-1.18,0.95-2.13,2.12-2.13h11.94c1.17,0,2.12,0.95,2.12,2.13V88.87z"/>
<path class="st4" d="M182.44,95.74c0,1.94-1.57,3.51-3.5,3.51h-18.6c-1.93,0-3.5-1.57-3.5-3.51v-5.22c0-1.94,1.57-3.51,3.5-3.51
	h18.6c1.93,0,3.5,1.57,3.5,3.51V95.74z"/>
<g>
	<path class="st4" d="M140.26,93.13c0,1.7-1.37,3.07-3.06,3.07c-1.69,0-3.06-1.37-3.06-3.07c0-1.7,1.37-3.07,3.06-3.07
		C138.89,90.06,140.26,91.43,140.26,93.13z"/>
	<path class="st4" d="M205.14,93.13c0,1.7-1.37,3.07-3.06,3.07c-1.69,0-3.06-1.37-3.06-3.07c0-1.7,1.37-3.07,3.06-3.07
		C203.77,90.06,205.14,91.43,205.14,93.13z"/>
</g>
<rect x="20.65" y="62.43" class="st3" width="15.33" height="27.49"/>
<path class="st4" d="M38.9,71.07c0,1.18-1.38,2.14-3.09,2.14H20.83c-1.71,0-3.09-0.96-3.09-2.14l0,0c0-1.18,1.39-2.14,3.09-2.14
	h14.97C37.51,68.93,38.9,69.89,38.9,71.07L38.9,71.07z"/>
<path class="st4" d="M6.51,42.42c0.12,1.35-0.87,2.54-2.21,2.66l0,0c-1.35,0.12-2.54-0.87-2.66-2.21L1.1,37.31
	c-0.12-1.35,0.87-2.54,2.21-2.66l0,0c1.35-0.12,2.54,0.87,2.66,2.21L6.51,42.42z"/>
<path class="st3" d="M21.74,51.64c2.06,1.66,2.38,4.68,0.72,6.74l0,0c-1.66,2.06-4.68,2.38-6.74,0.72L2.43,48.39
	c-2.06-1.66-2.38-4.68-0.72-6.74l0,0c1.66-2.06,4.68-2.38,6.74-0.72L21.74,51.64z"/>
<path class="st5" d="M6.81,44.55c0,1.04-0.84,1.88-1.88,1.88c-1.04,0-1.88-0.84-1.88-1.88c0-1.04,0.84-1.88,1.88-1.88
	C5.97,42.67,6.81,43.51,6.81,44.55z"/>
<path class="st3" d="M7.43,35.5c-0.46,2.03-2.48,3.29-4.5,2.83l0,0c-2.03-0.46-3.29-2.48-2.83-4.5l1.33-5.84
	c0.46-2.03,2.48-3.29,4.5-2.83l0,0c2.03,0.46,3.29,2.48,2.83,4.5L7.43,35.5z"/>
<g>
	<path class="st4" d="M18.32,22.66c0,1.11-0.9,2-2,2l0,0c-1.11,0-2-0.9-2-2V15.9c0-1.11,0.9-2,2-2l0,0c1.11,0,2,0.9,2,2V22.66z"/>
	<path class="st4" d="M26.32,22.66c0,1.11-0.9,2-2,2l0,0c-1.11,0-2-0.9-2-2V15.9c0-1.11,0.9-2,2-2l0,0c1.11,0,2,0.9,2,2V22.66z"/>
	<path class="st4" d="M34.32,22.66c0,1.11-0.9,2-2,2l0,0c-1.11,0-2-0.9-2-2V15.9c0-1.11,0.9-2,2-2l0,0c1.11,0,2,0.9,2,2V22.66z"/>
	<path class="st4" d="M42.33,22.66c0,1.11-0.9,2-2,2l0,0c-1.11,0-2-0.9-2-2V15.9c0-1.11,0.9-2,2-2l0,0c1.11,0,2,0.9,2,2V22.66z"/>
	<g>
		<path class="st3" d="M19.17,32.97c0,1.58-1.28,2.86-2.86,2.86l0,0c-1.58,0-2.86-1.28-2.86-2.86V21.76c0-1.58,1.28-2.86,2.86-2.86
			l0,0c1.58,0,2.86,1.28,2.86,2.86V32.97z"/>
		<path class="st3" d="M27.18,32.97c0,1.58-1.28,2.86-2.86,2.86l0,0c-1.58,0-2.86-1.28-2.86-2.86V21.76c0-1.58,1.28-2.86,2.86-2.86
			l0,0c1.58,0,2.86,1.28,2.86,2.86V32.97z"/>
		<path class="st3" d="M35.18,32.97c0,1.58-1.28,2.86-2.86,2.86l0,0c-1.58,0-2.86-1.28-2.86-2.86V21.76c0-1.58,1.28-2.86,2.86-2.86
			l0,0c1.58,0,2.86,1.28,2.86,2.86V32.97z"/>
		<path class="st3" d="M43.18,32.97c0,1.58-1.28,2.86-2.86,2.86l0,0c-1.58,0-2.86-1.28-2.86-2.86V21.76c0-1.58,1.28-2.86,2.86-2.86
			l0,0c1.58,0,2.86,1.28,2.86,2.86V32.97z"/>
	</g>
	<path class="st5" d="M17.65,21.76c0,0.74-0.6,1.33-1.33,1.33s-1.33-0.6-1.33-1.33c0-0.74,0.6-1.33,1.33-1.33
		S17.65,21.03,17.65,21.76z"/>
	<path class="st5" d="M25.65,21.76c0,0.74-0.6,1.33-1.33,1.33c-0.74,0-1.33-0.6-1.33-1.33c0-0.74,0.6-1.33,1.33-1.33
		C25.05,20.43,25.65,21.03,25.65,21.76z"/>
	<path class="st5" d="M33.65,21.76c0,0.74-0.6,1.33-1.33,1.33c-0.74,0-1.33-0.6-1.33-1.33c0-0.74,0.6-1.33,1.33-1.33
		C33.06,20.43,33.65,21.03,33.65,21.76z"/>
	<path class="st5" d="M41.66,21.76c0,0.74-0.6,1.33-1.33,1.33c-0.74,0-1.33-0.6-1.33-1.33c0-0.74,0.6-1.33,1.33-1.33
		C41.06,20.43,41.66,21.03,41.66,21.76z"/>
	<path class="st3" d="M18.96,14.31c0,1.41-1.14,2.55-2.55,2.55l0,0c-1.41,0-2.55-1.14-2.55-2.55V3.49c0-1.41,1.14-2.55,2.55-2.55
		l0,0c1.41,0,2.55,1.14,2.55,2.55V14.31z"/>
	<path class="st3" d="M34.87,14.31c0,1.41-1.14,2.55-2.55,2.55l0,0c-1.41,0-2.55-1.14-2.55-2.55V5.38c0-1.41,1.14-2.55,2.55-2.55
		l0,0c1.41,0,2.55,1.14,2.55,2.55V14.31z"/>
	<path class="st3" d="M42.87,14.31c0,1.41-1.14,2.55-2.55,2.55l0,0c-1.41,0-2.55-1.14-2.55-2.55v-6.1c0-1.41,1.14-2.55,2.55-2.55
		l0,0c1.41,0,2.55,1.14,2.55,2.55V14.31z"/>
	<path class="st3" d="M26.88,14.31c0,1.41-1.14,2.55-2.55,2.55l0,0c-1.41,0-2.55-1.14-2.55-2.55V2.55c0-1.41,1.14-2.55,2.55-2.55
		l0,0c1.41,0,2.55,1.14,2.55,2.55V14.31z"/>
	<path class="st5" d="M17.21,14.43c0,0.49-0.4,0.9-0.9,0.9c-0.49,0-0.9-0.4-0.9-0.9c0-0.49,0.4-0.9,0.9-0.9
		C16.81,13.54,17.21,13.94,17.21,14.43z"/>
	<path class="st5" d="M25.21,14.43c0,0.49-0.4,0.9-0.9,0.9c-0.49,0-0.9-0.4-0.9-0.9c0-0.49,0.4-0.9,0.9-0.9
		C24.81,13.54,25.21,13.94,25.21,14.43z"/>
	<path class="st5" d="M33.22,14.43c0,0.49-0.4,0.9-0.9,0.9c-0.49,0-0.9-0.4-0.9-0.9c0-0.49,0.4-0.9,0.9-0.9
		C32.81,13.54,33.22,13.94,33.22,14.43z"/>
	<path class="st5" d="M41.22,14.43c0,0.49-0.4,0.9-0.9,0.9s-0.9-0.4-0.9-0.9c0-0.49,0.4-0.9,0.9-0.9S41.22,13.94,41.22,14.43z"/>
</g>
<path class="st5" d="M4.93,34.83c0,0.8-0.65,1.44-1.44,1.44c-0.8,0-1.44-0.65-1.44-1.44c0-0.8,0.65-1.44,1.44-1.44
	C4.29,33.39,4.93,34.03,4.93,34.83z"/>
<path class="st2" d="M44.12,63.95c0,3.65-2.96,6.6-6.6,6.6h-18.4c-3.65,0-6.6-2.96-6.6-6.6l-0.88-29.39c0-3.65,2.96-6.6,6.6-6.6
	H38.4c3.65,0,6.6,2.96,6.6,6.6L44.12,63.95z"/>
<g>
	<g>
		<path class="st4" d="M18.73,34.97c0,0.87-0.71,1.58-1.58,1.58c-0.87,0-1.58-0.71-1.58-1.58c0-0.87,0.71-1.58,1.58-1.58
			C18.02,33.39,18.73,34.1,18.73,34.97z"/>
		<path class="st4" d="M41.07,34.97c0,0.87-0.71,1.58-1.58,1.58c-0.87,0-1.58-0.71-1.58-1.58c0-0.87,0.71-1.58,1.58-1.58
			C40.36,33.39,41.07,34.1,41.07,34.97z"/>
	</g>
	<g>
		<path class="st4" d="M19.68,64.89c0,0.87-0.71,1.58-1.58,1.58c-0.87,0-1.58-0.71-1.58-1.58c0-0.87,0.71-1.58,1.58-1.58
			C18.97,63.3,19.68,64.01,19.68,64.89z"/>
		<path class="st4" d="M40.13,64.89c0,0.87-0.71,1.58-1.58,1.58c-0.87,0-1.58-0.71-1.58-1.58c0-0.87,0.71-1.58,1.58-1.58
			C39.42,63.3,40.13,64.01,40.13,64.89z"/>
	</g>
</g>
<path class="st2" d="M28.32,81.43c-8.9,0-16.11,7.21-16.11,16.11h32.22C44.43,88.64,37.22,81.43,28.32,81.43z"/>
<path class="st4" d="M47.96,96.98c0,1.27-1.03,2.3-2.3,2.3H10.98c-1.27,0-2.3-1.03-2.3-2.3l0,0c0-1.27,1.03-2.3,2.3-2.3h34.68
	C46.93,94.68,47.96,95.71,47.96,96.98L47.96,96.98z"/>
</svg>
