<?xml version="1.0" encoding="utf-8"?>
<!-- Generator: Adobe Illustrator 23.0.3, SVG Export Plug-In . SVG Version: 6.00 Build 0)  -->
<svg version="1.1" id="Layer_1" xmlns="http://www.w3.org/2000/svg" xmlns:xlink="http://www.w3.org/1999/xlink" x="0px" y="0px"
	 viewBox="0 0 2500 2100" style="enable-background:new 0 0 2500 2100;" xml:space="preserve">
<style type="text/css">
	.st0{fill-rule:evenodd;clip-rule:evenodd;fill:#364548;}
	.st1{fill-rule:evenodd;clip-rule:evenodd;fill:#22A0C8;}
	.st2{fill-rule:evenodd;clip-rule:evenodd;fill:#37B1D9;}
	.st3{fill-rule:evenodd;clip-rule:evenodd;fill:#1B81A5;}
	.st4{fill-rule:evenodd;clip-rule:evenodd;fill:#1D91B4;}
	.st5{fill-rule:evenodd;clip-rule:evenodd;fill:#23A3C2;}
	.st6{fill-rule:evenodd;clip-rule:evenodd;fill:#34BBDE;}
	.st7{fill-rule:evenodd;clip-rule:evenodd;fill:#D3ECEC;}
	.st8{fill-rule:evenodd;clip-rule:evenodd;fill:#BDD9D7;}
</style>
<path class="st0" d="M377.12,1699.26v-159.79c0-21,13.13-37.86,34.86-37.86H418c21.73,0,34.79,16.88,34.79,37.86v336.4
	c0,82.03-40.53,147.3-111.15,188.89c-32.35,19.17-69.28,29.24-106.88,29.15h-15.01c-82.05,0-147.24-40.56-188.89-111.13
	c-19.19-32.35-29.26-69.29-29.14-106.9v-14.99c0-82.06,40.55-147.29,111.11-188.96c32.35-19.21,69.3-29.28,106.91-29.15h15.01
	C290.28,1642.77,337.39,1664.3,377.12,1699.26L377.12,1699.26z M77.38,1868.36c0,59.26,28.72,103.81,80.64,132.23
	c21,11.48,43.79,17.66,67.74,17.66c58.16,0,101.31-27.44,131.06-76.73c13.84-22.93,20.28-48.02,20.28-74.69
	c0-51.37-24.32-91.46-65.71-121.23c-25.1-18.05-53.35-27.1-84.16-27.1c-63.4,0-109.02,32.03-136.41,88.93
	C81.6,1826.66,77.38,1847.08,77.38,1868.36L77.38,1868.36z M715.31,1642.77h10.49c87.68,0,154.36,42.53,196.61,119.06
	c16.89,30.62,25.94,64.03,25.94,99.04v14.99c0,82.03-40.45,147.39-111.18,188.9c-32.74,19.21-68.92,29.14-106.87,29.14h-14.99
	c-82.05,0-147.26-40.56-188.89-111.13c-19.2-32.34-29.28-69.29-29.17-106.9v-14.99c0-82.07,40.71-147.09,111.1-188.94
	C641.08,1652.5,677.29,1642.77,715.31,1642.77L715.31,1642.77z M572.93,1868.36c0,57.52,28.22,99.83,76.81,129.59
	c22.81,13.96,47.94,20.29,74.59,20.29c56.84,0,98.85-28.82,128.09-76.79c13.95-22.87,20.25-48,20.25-74.63
	c0-53.49-25.76-94.35-69.8-123.95c-24.13-16.24-51-24.38-80.06-24.38c-63.4,0-109.02,32.03-136.4,88.93
	C577.15,1826.66,572.93,1847.08,572.93,1868.36L572.93,1868.36z M1262.93,1724.54c-11.43-5.35-32.81-7.13-45.16-7.6
	c-63.22-2.38-108.96,33.22-135.8,88.99c-9.27,19.24-13.5,39.6-13.5,60.89c0,64.81,34.03,110.2,91.88,137.86
	c21.13,10.1,48.42,12.01,71.51,12.01c20.31,0,49.02-12.44,67.05-21.01l3.13-1.48h13.99l1.54,0.31c17.21,3.58,30.2,14.49,30.2,33.01
	v7.49c0,46.07-84.2,56.62-116.33,58.87c-113.38,7.84-198.17-54.42-230.5-162.57c-5.62-18.78-8.14-37.43-8.14-57v-14.97
	c0-82.06,40.72-147.06,111.1-188.87c32.72-19.43,68.92-29.2,106.93-29.2h15c40.33,0,77.48,11.46,110.78,34.2l2.73,1.89l1.73,2.85
	c3.59,5.96,6.69,12.85,6.69,19.94v7.49c0,19.32-14.45,29.71-31.89,33.07l-1.45,0.25h-4.47
	C1298.68,1740.98,1273.01,1729.29,1262.93,1724.54L1262.93,1724.54z M1508.38,1775.78c29.39-29.43,58.89-58.81,88.72-87.75
	c8.31-8.08,39.79-42.26,52.18-42.26h13.55l1.54,0.32c17.27,3.58,30.2,14.51,30.2,33.07v7.48c0,12.66-14.82,27.36-23,36.03
	c-17.38,18.43-35.68,36.25-53.48,54.3l-91.43,92.81c39.37,39.45,78.69,78.94,117.73,118.69c10.83,10.97,21.57,22.03,32.24,33.16
	c3.76,3.96,9.31,8.88,12.46,14.36c3.39,5.14,5.47,10.93,5.47,17.11v7.81l-0.44,1.81c-4.25,17.27-15.21,31.19-34.34,31.19h-6.03
	c-12.52,0-26.66-14.16-35.23-22.26c-17.68-16.66-34.74-34.18-52.06-51.2l-58.1-57.03v91.15c0,21-13.14,37.87-34.85,37.87h-5.96
	c-21.74,0-34.86-16.88-34.86-37.87v-513.63c0-21,13.13-37.79,34.86-37.79h5.96c21.71,0,34.85,16.8,34.85,37.79V1775.78
	L1508.38,1775.78z M2451.51,1645.77h7.52c22.7,0,37.84,15.29,37.84,37.86c0,31.33-29.95,39.35-55.86,39.35
	c-33.98,0-66.44,20.58-89.86,43.65c-29.21,28.8-41.99,65.68-41.99,106.23v183.19c0,21-13.12,37.85-34.86,37.85h-5.98
	c-21.75,0-34.85-16.85-34.85-37.85v-193.71c0-74.38,36.21-135.11,96.58-177.7C2366.09,1659.21,2407.38,1645.78,2451.51,1645.77
	L2451.51,1645.77z M1913.68,2008.82c27.54,9.62,58.94,8.24,87.19,3.32c14.45-6.14,51.41-22.27,65-19.9l2.12,0.36l1.95,0.96
	c8.3,4.02,16.22,9.72,20.46,18.16c9.9,19.79,5.15,39.7-14.31,50.94l-6.47,3.74c-71.78,41.43-148.13,35.68-219.68-3.01
	c-34.21-18.5-60.38-45.95-79.69-79.41l-4.51-7.82c-46.08-79.8-39.86-163.75,12.11-239.64c17.94-26.23,41.39-46.49,68.8-62.34
	l10.37-5.99c67.6-39.02,140.05-36.35,209.47-2.1c37.33,18.42,67.58,45.87,88.42,81.97l3.75,6.5c15.14,26.23-4.47,49.08-24.72,64.71
	c-23.5,18.13-47.22,39.94-69.74,59.38C2013.99,1921.99,1963.86,1965.44,1913.68,2008.82L1913.68,2008.82z M1848.69,1963.17
	c56.15-48.14,112.32-96.34,168.33-144.69c19.14-16.5,40.13-33.63,59.11-50.99c-15.23-19.2-40.68-33.04-62.3-41.29
	c-43.65-16.63-86.69-11.04-126.72,12.06c-52.39,30.25-74.71,78.43-72.75,138.38c0.78,23.61,7.13,46.37,19.66,66.45
	C1838.43,1950.19,1843.36,1956.84,1848.69,1963.17z M1440.31,446.8h223.3v228.27h112.9c52.15,0,105.77-9.29,155.15-26.02
	c24.27-8.23,51.49-19.68,75.43-34.08c-31.52-41.15-47.62-93.12-52.34-144.34c-6.45-69.68,7.62-160.36,54.77-214.89l23.48-27.15
	l27.97,22.49c70.42,56.57,129.65,135.63,140.09,225.76c84.79-24.94,184.36-19.04,259.09,24.09l30.66,17.7l-16.13,31.5
	c-63.21,123.36-195.37,161.58-324.57,154.81c-193.33,481.53-614.24,709.5-1124.58,709.5c-263.67,0-505.57-98.56-643.32-332.49
	l-2.26-3.81l-20.07-40.84c-46.56-102.97-62.03-215.77-51.54-328.49l3.15-33.76h190.96V446.8h223.29V223.5h446.61V0.2h267.97V446.8"
	/>
<path class="st1" d="M2163.77,531.25c14.97-116.37-72.11-207.76-126.11-251.16c-62.24,71.95-71.9,260.53,25.73,339.92
	c-54.49,48.4-169.31,92.27-286.87,92.27H345.41c-11.43,122.72,10.12,235.74,59.33,332.47l16.28,29.79
	c10.31,17.48,21.57,34.38,33.74,50.63c58.84,3.78,113.09,5.08,162.71,3.98h0.02c97.53-2.15,177.11-13.67,237.42-34.57
	c9.07-2.82,18.71,2.24,21.53,11.31c2.69,8.66-1.8,17.92-10.27,21.17c-8.03,2.79-16.39,5.39-25.02,7.86h-0.03
	c-47.49,13.56-98.42,22.69-164.12,26.74c3.91,0.07-4.06,0.59-4.08,0.59c-2.24,0.15-5.05,0.47-7.29,0.59
	c-25.86,1.46-53.77,1.76-82.3,1.76c-31.21,0-61.94-0.59-96.31-2.34l-0.88,0.59c119.24,134.02,305.68,214.4,539.39,214.4
	c494.61,0,914.14-219.26,1099.92-711.49c131.8,13.53,258.47-20.09,316.08-132.57C2349.76,480.2,2231.73,497.09,2163.77,531.25"/>
<path class="st2" d="M2163.77,531.25c14.97-116.37-72.11-207.76-126.11-251.16c-62.24,71.95-71.9,260.53,25.73,339.92
	c-54.49,48.4-169.31,92.27-286.87,92.27H430.16c-5.84,187.95,63.91,330.62,187.3,416.87h0.03c97.53-2.15,177.11-13.67,237.42-34.57
	c9.07-2.82,18.71,2.24,21.53,11.31c2.69,8.66-1.8,17.92-10.27,21.17c-8.03,2.79-16.39,5.39-25.02,7.86h-0.03
	c-47.49,13.56-102.79,23.86-168.5,27.91c-0.02,0-1.59-1.51-1.61-1.51c168.33,86.35,412.4,86.04,692.24-21.46
	c313.77-120.55,605.75-350.2,809.47-612.86C2169.66,528.38,2166.67,529.79,2163.77,531.25"/>
<path class="st3" d="M348.1,861.39c8.89,65.74,28.13,127.29,56.64,183.36l16.28,29.79c10.31,17.48,21.57,34.38,33.74,50.63
	c58.85,3.78,113.1,5.08,162.73,3.98c97.53-2.15,177.11-13.67,237.42-34.57c9.07-2.82,18.71,2.24,21.53,11.31
	c2.69,8.66-1.8,17.92-10.27,21.17c-8.03,2.79-16.39,5.39-25.02,7.86h-0.03c-47.49,13.56-102.5,23.27-168.2,27.33
	c-2.26,0.14-6.19,0.17-8.47,0.29c-25.84,1.45-53.47,2.33-82.01,2.33c-31.2,0-63.12-0.6-97.46-2.34
	c119.24,134.02,306.84,214.7,540.55,214.7c423.44,0,791.84-160.72,1005.65-515.84H348.1"/>
<path class="st4" d="M443.04,861.39c25.31,115.43,86.14,206.04,174.45,267.75c97.53-2.15,177.11-13.67,237.42-34.57
	c9.07-2.82,18.71,2.24,21.53,11.31c2.69,8.66-1.8,17.92-10.27,21.17c-8.03,2.79-16.39,5.39-25.02,7.86h-0.03
	c-47.49,13.56-103.66,23.27-169.38,27.33c168.32,86.33,411.69,85.09,691.5-22.39c169.28-65.04,332.2-161.86,478.36-278.47H443.04"/>
<path class="st5" d="M539.65,484.01h193.54v193.54H539.65V484.01z M555.77,500.15h15.27v161.28h-15.27V500.15z M584.48,500.15h15.89
	v161.28h-15.88L584.48,500.15L584.48,500.15z M613.8,500.15h15.89v161.28H613.8V500.15z M643.13,500.15h15.88v161.28h-15.88V500.15z
	 M672.46,500.15h15.88v161.28h-15.88L672.46,500.15L672.46,500.15z M701.78,500.15h15.28v161.28h-15.28V500.15z M762.95,260.71
	h193.54v193.53H762.94L762.95,260.71L762.95,260.71z M779.08,276.85h15.26v161.27h-15.26V276.85z M807.79,276.85h15.88v161.27H807.8
	L807.79,276.85L807.79,276.85z M837.11,276.85h15.88v161.27h-15.88V276.85z M866.44,276.85h15.88v161.27h-15.88V276.85z
	 M895.76,276.85h15.89v161.27h-15.89V276.85z M925.08,276.85h15.29v161.27h-15.29V276.85z"/>
<path class="st6" d="M762.95,484.01h193.54v193.54H762.94L762.95,484.01L762.95,484.01z M779.08,500.15h15.26v161.28h-15.26V500.15z
	 M807.79,500.15h15.88v161.28H807.8L807.79,500.15L807.79,500.15z M837.11,500.15h15.88v161.28h-15.88V500.15z M866.44,500.15h15.88
	v161.28h-15.88V500.15z M895.76,500.15h15.89v161.28h-15.89V500.15z M925.08,500.15h15.29v161.28h-15.29V500.15z"/>
<path class="st5" d="M986.26,484.01h193.54v193.54H986.26V484.01z M1002.38,500.15h15.26v161.28h-15.26V500.15z M1031.09,500.15
	h15.88v161.28h-15.88V500.15z M1060.42,500.15h15.88v161.28h-15.88V500.15z M1089.75,500.15h15.88v161.28h-15.88V500.15z
	 M1119.06,500.15h15.9v161.28h-15.9V500.15z M1148.39,500.15h15.27v161.28h-15.27V500.15z"/>
<path class="st6" d="M986.26,260.71h193.54v193.53H986.26V260.71z M1002.38,276.85h15.26v161.27h-15.26V276.85z M1031.09,276.85
	h15.88v161.27h-15.88V276.85z M1060.42,276.85h15.88v161.27h-15.88V276.85z M1089.75,276.85h15.88v161.27h-15.88V276.85z
	 M1119.06,276.85h15.9v161.27h-15.9V276.85z M1148.39,276.85h15.27v161.27h-15.27V276.85z M1209.56,484.01h193.54v193.54h-193.54
	V484.01z M1225.69,500.15h15.26v161.28h-15.26V500.15z M1254.4,500.15h15.88v161.28h-15.88V500.15z M1283.72,500.15h15.88v161.28
	h-15.88V500.15z M1313.05,500.15h15.89v161.28h-15.89V500.15z M1342.37,500.15h15.89v161.28h-15.89V500.15z M1371.7,500.15h15.27
	v161.28h-15.27V500.15z"/>
<path class="st5" d="M1209.56,260.71h193.54v193.53h-193.54V260.71z M1225.69,276.85h15.26v161.27h-15.26V276.85z M1254.4,276.85
	h15.88v161.27h-15.88V276.85z M1283.72,276.85h15.88v161.27h-15.88V276.85z M1313.05,276.85h15.89v161.27h-15.89V276.85z
	 M1342.37,276.85h15.89v161.27h-15.89V276.85z M1371.7,276.85h15.27v161.27h-15.27V276.85z"/>
<path class="st6" d="M1209.56,37.4h193.54v193.55h-193.54V37.4z M1225.69,53.53h15.26v161.29h-15.26V53.53L1225.69,53.53z
	 M1254.4,53.53h15.88v161.29h-15.88V53.53L1254.4,53.53z M1283.72,53.53h15.88v161.29h-15.88V53.53L1283.72,53.53z M1313.05,53.53
	h15.89v161.29h-15.89V53.53L1313.05,53.53z M1342.37,53.53h15.89v161.29h-15.89V53.53L1342.37,53.53z M1371.7,53.53h15.27v161.29
	h-15.27V53.53L1371.7,53.53z"/>
<path class="st5" d="M1432.86,484.01h193.54v193.54h-193.54V484.01z M1448.97,500.15h15.28v161.28h-15.27L1448.97,500.15
	L1448.97,500.15z M1477.69,500.15h15.89v161.28h-15.88L1477.69,500.15L1477.69,500.15z M1507.02,500.15h15.89v161.28h-15.89V500.15z
	 M1536.34,500.15h15.89v161.28h-15.89V500.15z M1565.67,500.15h15.88v161.28h-15.88V500.15z M1594.99,500.15h15.27v161.28h-15.27
	V500.15z"/>
<path class="st7" d="M944.38,991.33c29.49-0.39,53.71,23.2,54.1,52.69c0.39,29.49-23.2,53.71-52.69,54.1
	c-0.48,0.01-0.96,0.01-1.44,0c-29.49-0.4-53.07-24.63-52.67-54.12C892.07,1015.07,915.44,991.71,944.38,991.33"/>
<path class="st0" d="M944.38,1006.47c4.88,0,9.54,0.92,13.84,2.59c-7.45,4.33-9.99,13.88-5.66,21.33c2.78,4.8,7.91,7.76,13.45,7.77
	c5.91,0,11.04-3.27,13.69-8.12c8.1,19.5-1.15,41.87-20.65,49.97c-19.5,8.1-41.87-1.15-49.97-20.65c-8.1-19.5,1.15-41.87,20.65-49.97
	C934.37,1007.47,939.35,1006.48,944.38,1006.47 M0,880.68h2483.66c-54.07-13.71-171.09-32.25-151.8-103.13
	c-98.34,113.79-335.48,79.83-395.33,23.73c-66.64,96.66-454.63,59.91-481.69-15.39c-83.55,98.06-342.45,98.06-426.01,0
	c-27.08,75.3-415.06,112.05-481.71,15.38c-59.84,56.11-296.97,90.07-395.31-23.71C171.11,848.44,54.09,866.97,0,880.68"/>
<path class="st8" d="M1086.3,1376.07c-132.23-62.74-204.79-148.05-245.18-241.15c-49.12,14.01-108.15,22.98-176.76,26.83
	c-25.84,1.45-53.03,2.19-81.54,2.19c-32.89,0-67.55-0.98-103.94-2.9c121.26,121.19,270.43,214.49,546.64,216.19
	C1045.92,1377.23,1066.15,1376.84,1086.3,1376.07"/>
<path class="st7" d="M890.23,1220.84c-18.29-24.83-36.04-56.04-49.08-85.94c-49.12,14.03-108.17,23-176.79,26.86
	C711.49,1187.33,778.89,1211.04,890.23,1220.84"/>
</svg>
