<svg class="ldi-hn83f" width="395px"  height="395px"  xmlns="http://www.w3.org/2000/svg" xmlns:xlink="http://www.w3.org/1999/xlink" viewBox="0 0 100 100" preserveAspectRatio="xMidYMid" style="background: none;"><!--?xml version="1.0" encoding="utf-8"?--><!--Generator: Adobe Illustrator 21.0.0, SVG Export Plug-In . SVG Version: 6.00 Build 0)--><svg version="1.1" id="圖層_1" xmlns="http://www.w3.org/2000/svg" xmlns:xlink="http://www.w3.org/1999/xlink" x="0px" y="0px" viewBox="0 0 100 100" style="transform-origin: 50px 50px 0px;" xml:space="preserve"><g style="transform-origin: 50px 50px 0px;"><g style="transform-origin: 50px 50px 0px; transform: scale(0.5);"><g style="transform-origin: 50px 50px 0px;"><g><style type="text/css" class="ld ld-breath" style="transform-origin: 50px 50px 0px; animation-duration: 2s; animation-delay: -2s; animation-direction: normal;">.st0{fill:#E0E0E0;} .st1{fill:#F8B26A;} .st2{fill:#F5E6C8;} .st3{fill:#849B87;} .st4{opacity:0.2;fill:#F8B26A;} .st5{opacity:0.2;fill:#ABBD81;} .st6{opacity:0.5;fill:#F8B26A;} .st7{opacity:0.5;fill:#ABBD81;} .st8{fill:none;stroke:#E0E0E0;stroke-width:4;stroke-miterlimit:10;} .st9{fill:#666666;} .st10{fill:#F47E60;} .st11{fill:#ABBD81;} .st12{fill:#A0C8D7;} .st13{fill:#333333;} .st14{fill:#FFFFFF;stroke:#1A1A1A;stroke-width:6;stroke-linejoin:round;stroke-miterlimit:10;} .st15{fill:#666666;stroke:#1A1A1A;stroke-width:6;stroke-linejoin:round;stroke-miterlimit:10;} .st16{fill:none;stroke:#1A1A1A;stroke-width:6;stroke-miterlimit:10;} .st17{fill:#1A1A1A;} .st18{fill:#FFFFFF;stroke:#1A1A1A;stroke-width:6;stroke-miterlimit:10;} .st19{fill:#666666;stroke:#1A1A1A;stroke-width:6;stroke-miterlimit:10;} .st20{fill:none;stroke:#FFFFFF;stroke-width:6;stroke-miterlimit:10;} .st21{fill:none;stroke:#FFFFFF;stroke-width:6;stroke-linejoin:round;stroke-miterlimit:10;} .st22{fill:#FFFFFF;} .st23{fill:#353035;} .st24{fill:#F5E169;} .st25{fill:none;stroke:#ABBD81;stroke-width:8;stroke-linecap:round;stroke-miterlimit:10;} .st26{fill:none;stroke:#E0E0E0;stroke-width:8;stroke-linecap:round;stroke-miterlimit:10;} .st27{fill:#FFDC6C;} .st28{fill:none;} .st29{fill:#C59B6D;} .st30{fill:#E6E6E6;} .st31{fill:#77A4BD;} .st32{fill:#6079BD;} .st33{fill:#405A9E;} .st34{fill:none;stroke:#405A9E;stroke-width:1.1292;stroke-miterlimit:10;} .st35{fill:#7D5A41;} .st36{fill:#E6CCAE;} .st37{fill:#CC632F;} .st38{fill:#998268;} .st39{fill:#D4C097;} .st40{fill:#A8A8A8;} .st41{fill:#CCCCCC;} .st42{fill:#999999;} .st43{stroke:#000000;stroke-width:1.8743;stroke-miterlimit:10;} .st44{fill:#FFFFFF;stroke:#000000;stroke-width:1.1246;stroke-miterlimit:10;} .st45{fill:#FFDC6D;} .st46{fill:#A0C8D7;stroke:#FFFFFF;stroke-width:4;stroke-linecap:round;stroke-miterlimit:10;} .st47{stroke:#F5E6C8;stroke-linecap:round;stroke-linejoin:round;stroke-miterlimit:10;} .st48{fill:none;stroke:#F5E6C8;stroke-linecap:round;stroke-linejoin:round;stroke-miterlimit:10;} .st49{fill:#FFFFFF;stroke:#F5E6C8;stroke-linecap:round;stroke-linejoin:round;stroke-miterlimit:10;} .st50{fill:none;stroke:#F5E6C8;stroke-miterlimit:10;} .st51{stroke:#F5E6C8;stroke-width:3;stroke-miterlimit:10;} .st52{stroke:#F5E6C8;stroke-miterlimit:10;} .st53{fill:none;stroke:#F5E6C8;stroke-linecap:round;stroke-linejoin:round;} .st54{fill:none;stroke:#F5E169;stroke-width:0.7105;stroke-miterlimit:10;} .st55{fill:none;stroke:#F5E169;stroke-width:0.675;stroke-miterlimit:10;} .st56{fill:none;stroke:#F5E169;stroke-width:0.6594;stroke-miterlimit:10;} .st57{fill:#1A1A1A;stroke:#F5E169;stroke-width:0.8;stroke-miterlimit:10;} .st58{fill:#FF0000;} .st59{fill:#D686A5;} .st60{fill:#AFA5CD;} .st61{opacity:0.5;fill:none;} .st62{opacity:0.2;fill:#849B87;} .st63{opacity:0.2;fill:#A0C8D7;} .st64{opacity:0.2;fill:#77A4BD;} .st65{opacity:0.5;fill:#849B87;} .st66{opacity:0.5;fill:#A0C8D7;} .st67{opacity:0.5;fill:#77A4BD;} .st68{fill:none;stroke:#333333;stroke-width:4;stroke-miterlimit:10;} .st69{fill:#F5E6C8;stroke:#333333;stroke-width:3;stroke-miterlimit:10;}</style><g class="ld ld-breath" style="transform-origin: 50px 50px 0px; animation-duration: 2s; animation-delay: -1.83333s; animation-direction: normal;"><path class="st1" d="M76,60.4c-0.1-0.1-0.3-0.2-0.4-0.2c-1.3-0.7-1.9-2.1-1.5-3.5c0.3-1.1,0.5-2.2,0.7-3.3c0.2-1.5,1.5-2.6,3-2.6 c0,0,0.1,0,0.1,0c5,0,9.8,1.2,14,3.4c-2.7-5-7.9-8.4-14-8.4c-0.2,0-0.4,0-0.6,0c-1.4,0.1-2.7-0.9-3.1-2.2c-0.3-1.1-0.6-2.1-1.1-3.1 c-0.6-1.4,0-3,1.3-3.7c0.1-0.1,0.2-0.1,0.3-0.2c4.4-2.5,9.1-3.8,13.8-4c-4.8-3-11.1-3.3-16.3-0.3c-0.3,0.1-0.5,0.3-0.7,0.5 c-1.2,0.8-2.8,0.6-3.8-0.4c-0.7-0.7-1.5-1.4-2.4-2.1c-1.2-0.9-1.5-2.6-0.8-3.9c0.1-0.2,0.2-0.3,0.3-0.5c2.5-4.4,6-7.9,9.9-10.4 c-5.7-0.2-11.2,2.7-14.3,7.9c-0.2,0.3-0.3,0.6-0.5,0.8c-0.7,1.3-2.1,2.1-3.5,1.7c-1-0.3-2-0.5-3-0.6c-1.5-0.2-2.6-1.5-2.6-3 c0-0.3,0-0.5,0-0.8c0-5,1.2-9.8,3.4-14c-5,2.7-8.4,7.9-8.4,14c0,0.4,0,0.7,0,1.1c0.1,1.5-0.8,2.9-2.2,3.2c-1,0.3-1.9,0.6-2.8,0.9 c-1.4,0.5-2.9,0-3.7-1.3c-0.2-0.3-0.3-0.5-0.5-0.8c-2.5-4.4-3.8-9.1-4-13.8c-3,4.8-3.3,11.1-0.3,16.3c0.2,0.3,0.4,0.7,0.6,1 c0.9,1.2,0.7,2.9-0.3,4c-0.7,0.7-1.4,1.4-2,2.2c-0.9,1.1-2.5,1.4-3.8,0.7c-0.3-0.2-0.6-0.3-0.9-0.5c-4.4-2.5-7.9-6-10.4-9.9 c-0.2,5.7,2.7,11.2,7.9,14.3c0.3,0.2,0.7,0.4,1,0.5c1.4,0.7,2.1,2.2,1.7,3.6C25.7,44,25.5,45,25.3,46c-0.2,1.5-1.5,2.5-3,2.6 c-0.3,0-0.6,0-0.9,0c-5,0-9.8-1.2-14-3.4c2.7,5,7.9,8.4,14,8.4c0.3,0,0.6,0,1,0c1.5-0.1,2.9,0.8,3.3,2.3c0.2,1,0.5,2,0.9,3 c0.5,1.4-0.1,2.9-1.3,3.6c-0.2,0.1-0.4,0.2-0.6,0.4c-4.4,2.5-9.1,3.8-13.8,4c4.8,3,11.1,3.3,16.3,0.3c0.3-0.2,0.5-0.3,0.8-0.5 c1.2-0.8,2.9-0.6,3.9,0.5c0.7,0.8,1.5,1.5,2.3,2.2c1.1,0.9,1.4,2.6,0.7,3.9c-0.1,0.1-0.1,0.2-0.2,0.4c-2.5,4.4-6,7.9-9.9,10.4 c5.7,0.2,11.2-2.7,14.3-7.9c0.1-0.2,0.2-0.4,0.3-0.6c0.7-1.3,2.2-1.9,3.5-1.5c1,0.3,2.1,0.6,3.2,0.7c1.5,0.2,2.6,1.5,2.6,3 c0,0.1,0,0.1,0,0.2c0,5-1.2,9.8-3.4,14c5-2.7,8.4-7.9,8.4-14c0-0.2,0-0.3,0-0.5c0-1.4,0.9-2.7,2.3-3.1c1.1-0.3,2.2-0.6,3.2-1 c1.4-0.5,2.9,0,3.7,1.3c0,0,0,0,0,0.1c2.5,4.4,3.8,9.1,4,13.8c3-4.8,3.3-11.1,0.3-16.3C67,72,67,71.9,66.9,71.8 c-0.7-1.2-0.6-2.8,0.4-3.8c0.8-0.8,1.6-1.6,2.3-2.5c0.9-1.2,2.6-1.5,3.9-0.7c0,0,0,0,0,0c4.4,2.5,7.9,6,10.4,9.9 C84.1,69,81.3,63.4,76,60.4z" fill="#66c490" style="fill: rgb(102, 196, 144);"></path></g><g class="ld ld-breath" style="transform-origin: 50px 50px 0px; animation-duration: 2s; animation-delay: -1.66667s; animation-direction: normal;"><circle class="st2" cx="50" cy="50" r="21" fill="#f8f9f8" style="fill: rgb(248, 249, 248);"></circle></g><metadata xmlns:d="https://loading.io/stock/" class="ld ld-breath" style="transform-origin: 50px 50px 0px; animation-duration: 2s; animation-delay: -1.5s; animation-direction: normal;">
<d:name class="ld ld-breath" style="transform-origin: 50px 50px 0px; animation-duration: 2s; animation-delay: -1.33333s; animation-direction: normal;">sun</d:name>
<d:tags class="ld ld-breath" style="transform-origin: 50px 50px 0px; animation-duration: 2s; animation-delay: -1.16667s; animation-direction: normal;">star,hot,burn,scorch,solar system,sun,astrology</d:tags>
<d:license class="ld ld-breath" style="transform-origin: 50px 50px 0px; animation-duration: 2s; animation-delay: -1s; animation-direction: normal;">rf</d:license>
<d:slug class="ld ld-breath" style="transform-origin: 50px 50px 0px; animation-duration: 2s; animation-delay: -0.833333s; animation-direction: normal;">hn83f</d:slug>
</metadata></g></g></g></g><style type="text/css" class="ld ld-breath" style="transform-origin: 50px 50px 0px; animation-duration: 2s; animation-delay: -0.666667s; animation-direction: normal;">@keyframes ld-breath {
  0% {
    -webkit-transform: scale(1.2);
    transform: scale(1.2);
  }
  50% {
    -webkit-transform: scale(1.5);
    transform: scale(1.5);
  }
  100% {
    -webkit-transform: scale(1.2);
    transform: scale(1.2);
  }
}
@-webkit-keyframes ld-breath {
  0% {
    -webkit-transform: scale(1.2);
    transform: scale(1.2);
  }
  50% {
    -webkit-transform: scale(1.5);
    transform: scale(1.5);
  }
  100% {
    -webkit-transform: scale(1.2);
    transform: scale(1.2);
  }
}
.ld.ld-breath {
  -webkit-animation: ld-breath 1s infinite;
  animation: ld-breath 1s infinite;
}
</style></svg></svg>